<svg width="15" height="16" viewBox="0 0 15 16" fill="none" xmlns="http://www.w3.org/2000/svg">
<rect x="2.41309" y="5.45996" width="1.365" height="5.46" rx="0.6825" fill="#421669"/>
<path fill-rule="evenodd" clip-rule="evenodd" d="M0.365234 12.9675C0.365234 14.4753 1.5875 15.6975 3.09523 15.6975C4.60297 15.6975 5.82523 14.4753 5.82523 12.9675C5.82523 11.4598 4.60297 10.2375 3.09523 10.2375C1.5875 10.2375 0.365234 11.4598 0.365234 12.9675ZM4.46023 12.9675C4.46023 13.7214 3.8491 14.3325 3.09523 14.3325C2.34137 14.3325 1.73023 13.7214 1.73023 12.9675C1.73023 12.2137 2.34137 11.6025 3.09523 11.6025C3.8491 11.6025 4.46023 12.2137 4.46023 12.9675Z" fill="#421669"/>
<rect x="10.6025" y="5.45996" width="1.365" height="5.46" rx="0.6825" fill="#421669"/>
<path fill-rule="evenodd" clip-rule="evenodd" d="M8.55566 12.9675C8.55566 14.4753 9.77793 15.6975 11.2857 15.6975C12.7934 15.6975 14.0157 14.4753 14.0157 12.9675C14.0157 11.4598 12.7934 10.2375 11.2857 10.2375C9.77793 10.2375 8.55566 11.4598 8.55566 12.9675ZM12.6507 12.9675C12.6507 13.7214 12.0395 14.3325 11.2857 14.3325C10.5318 14.3325 9.92066 13.7214 9.92066 12.9675C9.92066 12.2137 10.5318 11.6025 11.2857 11.6025C12.0395 11.6025 12.6507 12.2137 12.6507 12.9675Z" fill="#421669"/>
<path fill-rule="evenodd" clip-rule="evenodd" d="M0.365234 3.4125C0.365234 4.92023 1.5875 6.1425 3.09523 6.1425C4.60297 6.1425 5.82523 4.92023 5.82523 3.4125C5.82523 1.90476 4.60297 0.682495 3.09523 0.682495C1.5875 0.682495 0.365234 1.90476 0.365234 3.4125ZM4.46023 3.4125C4.46023 4.16636 3.8491 4.7775 3.09523 4.7775C2.34137 4.7775 1.73023 4.16636 1.73023 3.4125C1.73023 2.65863 2.34137 2.0475 3.09523 2.0475C3.8491 2.0475 4.46023 2.65863 4.46023 3.4125Z" fill="#421669"/>
<path fill-rule="evenodd" clip-rule="evenodd" d="M8.55566 3.4125C8.55566 4.92023 9.77793 6.1425 11.2857 6.1425C12.7934 6.1425 14.0157 4.92023 14.0157 3.4125C14.0157 1.90476 12.7934 0.682495 11.2857 0.682495C9.77793 0.682495 8.55566 1.90476 8.55566 3.4125ZM12.6507 3.4125C12.6507 4.16636 12.0395 4.7775 11.2857 4.7775C10.5318 4.7775 9.92066 4.16636 9.92066 3.4125C9.92066 2.65863 10.5318 2.0475 11.2857 2.0475C12.0395 2.0475 12.6507 2.65863 12.6507 3.4125Z" fill="#421669"/>
</svg>
