<svg width="151" height="153" viewBox="0 0 151 153" fill="none" xmlns="http://www.w3.org/2000/svg">
<path d="M137.116 52.2018C131.068 44.1671 121.911 41.1147 118.092 40.5931C108.238 39.2478 99.552 46.7236 94.674 52.9844C89.7961 59.2454 74.9156 80.7073 70.8922 83.376C64.7926 87.4197 46.0121 89.8979 38.45 100.985C19.791 125.116 32.5967 145.986 49.5479 152.117C109.311 169.203 147.127 140.898 150.531 101.376C153.092 71.637 144.678 62.2453 137.116 52.2018Z" fill="#9290F4"/>
<path d="M113.956 112.594C100.882 132.733 60.6512 108.474 50.5684 105.561C74.5853 90.5307 108.37 31.215 119.838 45.1147C130.62 58.184 130.299 87.4195 113.956 112.594Z" fill="#8280F3"/>
<path d="M115.998 103.163C120.684 103.163 123.121 104.732 124.165 106.757C124.165 105.614 122.207 101.775 115.998 103.163Z" fill="#5546AF"/>
<path d="M127.222 106.491C123.64 101.563 118.903 101.126 116.984 101.523C117.217 101.328 117.719 100.863 117.848 100.564C123.557 100.222 126.864 104.981 127.222 106.491Z" fill="#5546AF"/>
<path d="M119.185 99.0131C121.361 99.1221 126.405 100.859 129.15 106.937C129.15 104.077 124.329 97.4611 119.185 99.0131Z" fill="#5546AF"/>
<path d="M91.8203 119.773C92.6089 119.746 94.3009 120.606 94.7597 124.266C95.2501 122.795 94.2693 118.629 91.8203 119.773Z" fill="#5546AF"/>
<path d="M93.4521 118.548C94.5705 119.31 97.0138 121.587 97.8655 124.593C98.2727 122.061 96.0675 119.12 93.4521 118.548Z" fill="#5546AF"/>
<path d="M118.61 54.0178C120.001 52.1665 124.297 48.398 130.374 48.1365C127.598 49.1167 123.511 50.0971 118.61 54.0178Z" fill="#5546AF"/>
<path d="M130.701 51.5673C125.473 50.9138 120.572 53.7998 118.774 55.3246C118.992 55.3246 120.085 56.6844 120.329 56.0598C121.596 52.8116 128.659 52.1391 130.701 51.5673Z" fill="#5546AF"/>
<path d="M112.167 96.0618L62.0567 103.483C55.8567 111.77 46.5309 124.236 38.6562 134.736C40.1417 123.558 44.0733 100.611 47.9132 98.2444C51.753 95.878 58.9423 94.3877 62.0567 93.9386C69.8883 93.0054 78.5144 92.3126 84.0547 91.6969L112.167 96.0618Z" fill="#BA0201"/>
<path d="M10.7982 160.035C8.35381 160.591 3.61034 158.956 3.20312 157.328C9.92529 156.192 16.7412 149.906 19.3537 147.113L24.8537 148.423C24.0679 149.295 23.0203 151.652 23.0203 152.963C21.6235 158.635 13.8538 159.335 10.7982 160.035Z" fill="#FDC6A6"/>
<path d="M84.0546 91.6969C72.2684 93.0063 47.1732 94.9288 43.7319 97.3583C38.8568 100.8 21.6366 135.129 16.7217 147.686L25.379 153.422C30.3498 147.408 52.0597 122 63.0889 107.252L112.167 96.0618L84.0546 91.6969Z" fill="#8C70C7"/>
<path d="M99.0391 94.0236L99.3602 94.0735C99.3287 94.0958 99.2972 94.1182 99.2656 94.1406C99.1997 94.1853 99.1107 94.1687 99.0649 94.1033C99.0477 94.0789 99.0391 94.0511 99.0391 94.0236Z" fill="#C9B3F8"/>
<path d="M98.0434 94.8349C98.1122 94.8008 98.1437 94.715 98.1093 94.6436C98.0749 94.5722 97.9889 94.5421 97.9172 94.5765C97.5329 94.7612 97.1142 94.9381 96.6583 95.1084C96.5837 95.1363 96.5464 95.2189 96.5751 95.2928C96.6038 95.3671 96.6869 95.4047 96.7586 95.3769C97.2203 95.2042 97.6476 95.0239 98.0434 94.8349Z" fill="#C9B3F8"/>
<path d="M95.434 95.8272C95.5114 95.804 95.5516 95.7237 95.5286 95.648C95.5057 95.5723 95.4254 95.5301 95.3508 95.5534C94.9293 95.6839 94.4877 95.8098 94.0288 95.9316C93.9514 95.952 93.9055 96.0306 93.9256 96.1071C93.9457 96.1837 94.026 96.2293 94.1005 96.2089C94.5651 96.0862 95.0096 95.9592 95.434 95.8272Z" fill="#C9B3F8"/>
<path d="M92.7556 96.5441C92.8301 96.526 92.8789 96.4489 92.8617 96.3718C92.8445 96.2946 92.7671 96.2467 92.6896 96.2648C92.2509 96.3669 91.8006 96.4664 91.339 96.563C91.2615 96.5794 91.2128 96.6554 91.2271 96.7328C91.2443 96.8102 91.3189 96.8598 91.3963 96.8438C91.8609 96.7466 92.314 96.6468 92.7556 96.5441Z" fill="#C9B3F8"/>
<path d="M90.0337 97.1159C90.1112 97.101 90.1628 97.0259 90.1484 96.9481C90.1341 96.8701 90.0596 96.8191 89.9821 96.834C89.5348 96.9192 89.0817 97.0021 88.62 97.0835C88.5397 97.0973 88.488 97.1715 88.5024 97.2495C88.5167 97.3275 88.5913 97.3794 88.6687 97.366C89.1304 97.2842 89.5864 97.2011 90.0337 97.1159Z" fill="#C9B3F8"/>
<path d="M87.3014 97.5986C87.3788 97.5857 87.4333 97.512 87.4189 97.4337C87.4075 97.3557 87.3329 97.3026 87.2555 97.3155C86.8053 97.3895 86.3493 97.4624 85.8876 97.5338C85.8102 97.5461 85.7557 97.6192 85.7672 97.6975C85.7815 97.7758 85.8532 97.8294 85.9335 97.8171C86.3923 97.7454 86.8512 97.6726 87.3014 97.5986Z" fill="#C9B3F8"/>
<path d="M84.5621 98.0251C84.6395 98.0133 84.694 97.9405 84.6826 97.8622C84.6711 97.7839 84.5965 97.7297 84.5191 97.7415C84.066 97.8086 83.61 97.8748 83.1483 97.9402C83.0709 97.9514 83.0164 98.0242 83.0279 98.1025C83.0394 98.1808 83.111 98.2353 83.1885 98.2241C83.6502 98.1584 84.1061 98.0922 84.5621 98.0251Z" fill="#C9B3F8"/>
<path d="M81.8179 98.4169C81.8954 98.406 81.9527 98.3337 81.9412 98.2554C81.9298 98.1768 81.8581 98.1221 81.7778 98.133C81.3247 98.1961 80.8658 98.2586 80.407 98.3211C80.3296 98.3317 80.2722 98.404 80.2837 98.4825C80.2952 98.5608 80.3669 98.6159 80.4443 98.6053C80.906 98.5428 81.362 98.4802 81.8179 98.4169Z" fill="#C9B3F8"/>
<path d="M79.0738 98.7904C79.1512 98.7798 79.2057 98.7078 79.1971 98.6292C79.1857 98.5506 79.114 98.4956 79.0337 98.5062C78.6981 98.5515 78.3626 98.5965 78.0271 98.6415L77.6629 98.6903C77.5826 98.7009 77.5281 98.7732 77.5396 98.8518C77.5482 98.93 77.6228 98.9851 77.7002 98.9748L78.073 98.9249C78.4056 98.8801 78.7383 98.8354 79.0738 98.7904Z" fill="#C9B3F8"/>
<path d="M76.3261 99.1593C76.4064 99.149 76.4609 99.0768 76.4494 98.9982C76.4379 98.9196 76.3663 98.8648 76.2888 98.8752C75.83 98.9374 75.3712 98.9993 74.9152 99.0621C74.8378 99.0727 74.7833 99.145 74.7919 99.2236C74.8034 99.3022 74.8751 99.3569 74.9554 99.346C75.4113 99.2835 75.8673 99.2216 76.3261 99.1593Z" fill="#C9B3F8"/>
<path d="M73.5817 99.5365C73.662 99.5256 73.7165 99.4531 73.705 99.3748C73.6935 99.2962 73.6218 99.2417 73.5415 99.2526C73.0827 99.3174 72.6239 99.3825 72.1708 99.4488C72.0934 99.4599 72.0389 99.5328 72.0504 99.6114C72.0618 99.6897 72.1335 99.7439 72.211 99.7324C72.6641 99.6664 73.1229 99.6013 73.5817 99.5365Z" fill="#C9B3F8"/>
<path d="M70.8432 99.9356C70.9207 99.9239 70.9751 99.8508 70.9637 99.7725C70.9522 99.6942 70.8776 99.6403 70.8002 99.6523C70.3385 99.7223 69.8797 99.7934 69.4295 99.8657C69.352 99.8783 69.2975 99.9517 69.3119 100.03C69.3233 100.108 69.3979 100.161 69.4753 100.149C69.9256 100.077 70.3815 100.006 70.8432 99.9356Z" fill="#C9B3F8"/>
<path d="M68.1109 100.374C68.1884 100.361 68.24 100.287 68.2285 100.209C68.2142 100.131 68.1396 100.078 68.0622 100.092C67.6005 100.17 67.1445 100.251 66.6972 100.333C66.6197 100.348 66.5681 100.422 66.5825 100.5C66.5968 100.578 66.6714 100.63 66.7488 100.615C67.1961 100.533 67.6492 100.453 68.1109 100.374Z" fill="#C9B3F8"/>
<path d="M65.3924 100.876C65.4698 100.86 65.5214 100.785 65.5042 100.707C65.4899 100.629 65.4153 100.579 65.3379 100.595C64.8733 100.688 64.4173 100.784 63.9757 100.882C63.8983 100.899 63.8495 100.976 63.8667 101.053C63.8839 101.131 63.9614 101.179 64.0388 101.162C64.4776 101.064 64.9307 100.969 65.3924 100.876Z" fill="#C9B3F8"/>
<path d="M62.6905 101.48C62.7679 101.461 62.8138 101.383 62.7937 101.306C62.7765 101.229 62.6962 101.183 62.6217 101.202C62.3951 101.259 62.1714 101.317 61.9535 101.376C61.7126 101.441 61.4717 101.51 61.2366 101.581C61.162 101.604 61.119 101.684 61.1419 101.76C61.1649 101.836 61.2452 101.878 61.3197 101.855C61.552 101.785 61.79 101.717 62.0281 101.652C62.246 101.594 62.4668 101.537 62.6905 101.48Z" fill="#C9B3F8"/>
<path d="M59.9377 102.328C60.0094 102.3 60.0467 102.217 60.0209 102.143C59.9922 102.069 59.909 102.032 59.8345 102.06C59.3613 102.241 58.9053 102.434 58.4666 102.639C58.3949 102.673 58.3633 102.758 58.3978 102.83C58.4293 102.902 58.5153 102.933 58.587 102.899C59.0201 102.697 59.4703 102.506 59.9377 102.328Z" fill="#C9B3F8"/>
<path d="M57.2876 103.569C57.3564 103.53 57.3793 103.442 57.342 103.373C57.3019 103.304 57.2159 103.28 57.147 103.319C56.7083 103.567 56.2867 103.828 55.8824 104.101C55.8164 104.146 55.7992 104.234 55.8451 104.3C55.8881 104.366 55.977 104.383 56.043 104.339C56.4416 104.07 56.8545 103.813 57.2876 103.569Z" fill="#C9B3F8"/>
<path d="M54.8644 105.206C54.9275 105.157 54.9361 105.067 54.8873 105.005C54.8386 104.943 54.7468 104.933 54.6866 104.982C54.2937 105.295 53.9209 105.62 53.5625 105.955C53.5051 106.009 53.5022 106.1 53.5567 106.158C53.6112 106.215 53.703 106.218 53.7603 106.164C54.113 105.834 54.4801 105.515 54.8644 105.206Z" fill="#C9B3F8"/>
<path d="M52.7286 107.203C52.783 107.145 52.7802 107.054 52.7228 107.001C52.6626 106.947 52.5737 106.951 52.5192 107.009C52.1808 107.375 51.8597 107.751 51.5499 108.135C51.5012 108.196 51.5127 108.287 51.5729 108.336C51.636 108.386 51.7249 108.376 51.7736 108.314C52.0805 107.936 52.3959 107.565 52.7286 107.203Z" fill="#C9B3F8"/>
<path d="M50.8932 109.485C50.9391 109.42 50.9219 109.331 50.8588 109.285C50.7928 109.239 50.7039 109.254 50.6581 109.319C50.3713 109.724 50.096 110.135 49.8322 110.55C49.792 110.617 49.8121 110.706 49.8781 110.748C49.944 110.791 50.0329 110.771 50.0759 110.704C50.3369 110.292 50.6093 109.885 50.8932 109.485Z" fill="#C9B3F8"/>
<path d="M49.3185 111.962C49.3558 111.893 49.3329 111.805 49.264 111.766C49.1952 111.726 49.1092 111.75 49.069 111.818C48.8224 112.248 48.5844 112.681 48.355 113.114C48.3177 113.184 48.3435 113.271 48.4123 113.308C48.484 113.345 48.5701 113.319 48.6073 113.249C48.8367 112.818 49.0719 112.388 49.3185 111.962Z" fill="#C9B3F8"/>
<path d="M47.9363 114.557C47.9708 114.486 47.9421 114.4 47.8704 114.365C47.7987 114.329 47.7127 114.358 47.6782 114.429C47.4574 114.872 47.2423 115.315 47.0301 115.755C46.9957 115.827 47.0244 115.912 47.0961 115.947C47.1678 115.981 47.2538 115.951 47.2882 115.88C47.5004 115.44 47.7155 114.999 47.9363 114.557Z" fill="#C9B3F8"/>
<path d="M46.6514 117.21C46.6858 117.138 46.6571 117.053 46.5854 117.019C46.5137 116.985 46.4277 117.015 46.3933 117.087C46.1811 117.536 45.9689 117.979 45.7567 118.416C45.7223 118.487 45.751 118.573 45.8227 118.608C45.8943 118.642 45.9804 118.612 46.0148 118.541C46.227 118.103 46.4392 117.659 46.6514 117.21Z" fill="#C9B3F8"/>
<path d="M45.3581 119.865C45.3926 119.794 45.3667 119.708 45.295 119.672C45.2262 119.636 45.1373 119.663 45.1029 119.734C44.9911 119.954 44.8764 120.171 44.7616 120.386C44.6613 120.577 44.5466 120.785 44.4204 121.008C44.3803 121.076 44.406 121.164 44.4749 121.203C44.5437 121.242 44.6297 121.218 44.6699 121.149C44.7961 120.925 44.9136 120.715 45.0169 120.52C45.1316 120.304 45.2434 120.086 45.3581 119.865Z" fill="#C9B3F8"/>
<path d="M43.9415 122.382C43.9816 122.314 43.9616 122.226 43.8927 122.185C43.8268 122.144 43.7379 122.165 43.6948 122.233C43.4626 122.615 43.2102 123.023 42.9378 123.456C42.8948 123.524 42.9148 123.612 42.9808 123.654C43.0467 123.697 43.1356 123.677 43.1786 123.61C43.4539 123.175 43.7092 122.765 43.9415 122.382Z" fill="#C9B3F8"/>
<path d="M42.4018 124.828C42.4448 124.761 42.4247 124.673 42.3588 124.63C42.2928 124.587 42.2039 124.606 42.1609 124.672C41.9085 125.059 41.6476 125.461 41.3752 125.876C41.3321 125.942 41.3494 126.031 41.4153 126.075C41.4813 126.118 41.5701 126.1 41.6132 126.034C41.8885 125.618 42.1494 125.216 42.4018 124.828Z" fill="#C9B3F8"/>
<path d="M40.8215 127.233C40.8645 127.167 40.8473 127.078 40.7813 127.034C40.7154 126.991 40.6265 127.008 40.5835 127.074C40.3225 127.464 40.0558 127.862 39.7834 128.269C39.7403 128.335 39.7576 128.424 39.8235 128.468C39.8866 128.512 39.9784 128.495 40.0214 128.429C40.2938 128.022 40.5605 127.623 40.8215 127.233Z" fill="#C9B3F8"/>
<path d="M39.219 129.619C39.2649 129.554 39.2477 129.464 39.1817 129.42C39.1158 129.376 39.0269 129.393 38.981 129.458C38.7172 129.848 38.4476 130.244 38.1752 130.645C38.1293 130.711 38.1465 130.8 38.2125 130.845C38.2784 130.889 38.3673 130.872 38.4132 130.807C38.6856 130.405 38.9552 130.009 39.219 129.619Z" fill="#C9B3F8"/>
<path d="M37.6007 131.993C37.6466 131.928 37.6294 131.839 37.5634 131.794C37.4975 131.749 37.4086 131.766 37.3627 131.831C37.096 132.222 36.8236 132.617 36.5512 133.016C36.5053 133.081 36.5225 133.171 36.5884 133.216C36.6515 133.261 36.7404 133.244 36.7863 133.179C37.0616 132.78 37.3312 132.385 37.6007 131.993Z" fill="#C9B3F8"/>
<path d="M35.9697 134.364C36.0156 134.299 35.9984 134.209 35.9325 134.164C35.8694 134.119 35.7805 134.136 35.7346 134.201C35.4622 134.593 35.1897 134.988 34.9144 135.384C34.8686 135.449 34.8858 135.538 34.9517 135.584C35.0177 135.629 35.1066 135.612 35.1496 135.548C35.4249 135.151 35.7002 134.756 35.9697 134.364Z" fill="#C9B3F8"/>
<path d="M34.3291 136.728C34.375 136.663 34.3607 136.574 34.2947 136.529C34.2288 136.484 34.1399 136.5 34.094 136.565C33.8224 136.957 33.5485 137.35 33.2738 137.744C33.2285 137.809 33.2446 137.898 33.3094 137.943C33.3745 137.989 33.4639 137.973 33.5092 137.908C33.7837 137.514 34.0567 137.12 34.3291 136.728Z" fill="#C9B3F8"/>
<path d="M32.6858 139.087C32.7311 139.022 32.715 138.933 32.6502 138.888C32.5854 138.842 32.4959 138.858 32.4506 138.923C32.1762 139.316 31.9012 139.709 31.6264 140.101C31.5811 140.167 31.5969 140.256 31.6617 140.302C31.7265 140.348 31.816 140.331 31.8613 140.265C32.1363 139.873 32.4111 139.48 32.6858 139.087Z" fill="#C9B3F8"/>
<path d="M31.0372 141.443C31.0828 141.378 31.067 141.289 31.0022 141.243C30.9371 141.2 30.8479 141.214 30.8024 141.28C30.5265 141.673 30.2515 142.066 29.977 142.456C29.9317 142.522 29.9475 142.611 30.0123 142.657C30.0771 142.702 30.1663 142.685 30.2119 142.619C30.4861 142.229 30.7614 141.836 31.0372 141.443Z" fill="#C9B3F8"/>
<path d="M29.3847 143.798C29.43 143.735 29.4146 143.643 29.3498 143.6C29.2849 143.554 29.1955 143.568 29.1499 143.634C28.8726 144.027 28.5967 144.42 28.3228 144.81C28.2775 144.876 28.293 144.965 28.3578 145.011C28.4226 145.057 28.5121 145.04 28.5577 144.976C28.8316 144.586 29.1074 144.194 29.3847 143.798Z" fill="#C9B3F8"/>
<path d="M27.7312 146.152C27.7768 146.086 27.761 145.997 27.6962 145.951C27.6314 145.908 27.5419 145.923 27.4966 145.989L26.6707 147.162C26.6251 147.228 26.6406 147.316 26.7054 147.362C26.7702 147.408 26.8597 147.391 26.9053 147.328L27.7312 146.152Z" fill="#C9B3F8"/>
<path d="M26.0803 148.501C26.1256 148.438 26.1101 148.346 26.0453 148.303C25.9805 148.257 25.891 148.272 25.8454 148.337C25.5655 148.736 25.29 149.129 25.0192 149.513C24.9736 149.579 24.9894 149.668 25.0542 149.714C25.119 149.76 25.2085 149.743 25.2538 149.68C25.5248 149.292 25.8004 148.9 26.0803 148.501Z" fill="#C9B3F8"/>
<path d="M24.4275 150.858C24.4731 150.792 24.4574 150.703 24.3925 150.657C24.3274 150.611 24.2383 150.629 24.1927 150.692C23.9111 151.096 23.6358 151.489 23.3676 151.87C23.3223 151.936 23.3381 152.025 23.4032 152.071C23.468 152.117 23.5575 152.1 23.6028 152.037C23.8706 151.652 24.1459 151.26 24.4275 150.858Z" fill="#C9B3F8"/>
<path d="M23.6018 168.813C26.279 168.434 32.2315 166.349 35.9116 162.091C37.5691 160.169 39.7171 155.552 42.6335 149.694L33.9042 151.526C31.5289 157.325 24.2421 162.498 20.8955 164.359L23.6018 168.813Z" fill="#FDC6A6"/>
<path d="M114.435 96.149C115.542 99.612 115.903 107.743 108.499 112.562C99.2447 118.585 75.0012 117.026 64.1757 115.106C62.0794 115.106 60.0089 115.106 59.1113 118.161C58.0503 121.768 47.0125 146.367 40.5774 158.87L29.25 153.278C32.2184 146.032 38.6503 123.141 43.0149 105.244C43.9727 101.316 50.881 99.3794 56.8172 98.3316C62.3174 97.7208 91.912 91.7841 114.435 96.149Z" fill="#9677D9"/>
<path d="M110.461 95.4915C110.438 95.5546 110.372 95.5947 110.303 95.5841C110.237 95.5738 110.188 95.5185 110.183 95.4534C110.274 95.466 110.369 95.4786 110.461 95.4915Z" fill="#C9B3F8"/>
<path d="M110.234 96.8826C110.246 96.8046 110.194 96.7301 110.117 96.7163C110.039 96.7022 109.965 96.7541 109.95 96.8321C109.867 97.3053 109.776 97.7722 109.669 98.2319C109.652 98.309 109.701 98.3859 109.778 98.4033C109.856 98.4206 109.933 98.3721 109.95 98.295C110.057 97.8301 110.148 97.3589 110.234 96.8826Z" fill="#C9B3F8"/>
<path d="M109.586 99.6917C109.609 99.6157 109.566 99.5357 109.489 99.5128C109.414 99.4901 109.334 99.5329 109.311 99.6089C109.173 100.063 109.019 100.51 108.841 100.948C108.809 101.021 108.844 101.105 108.918 101.134C108.993 101.165 109.076 101.129 109.105 101.056C109.288 100.609 109.446 100.154 109.586 99.6917Z" fill="#C9B3F8"/>
<path d="M108.482 102.365C108.519 102.295 108.496 102.208 108.424 102.17C108.355 102.132 108.269 102.157 108.229 102.226C108.006 102.633 107.756 103.032 107.472 103.421C107.426 103.485 107.441 103.575 107.504 103.621C107.567 103.668 107.656 103.654 107.704 103.59C107.994 103.19 108.252 102.782 108.482 102.365Z" fill="#C9B3F8"/>
<path d="M106.775 104.706C106.83 104.648 106.827 104.557 106.77 104.503C106.712 104.449 106.623 104.452 106.569 104.509C106.256 104.841 105.915 105.165 105.539 105.481C105.479 105.532 105.471 105.622 105.522 105.683C105.574 105.743 105.663 105.751 105.723 105.7C106.107 105.377 106.457 105.046 106.775 104.706Z" fill="#C9B3F8"/>
<path d="M104.574 106.573C104.637 106.529 104.654 106.439 104.611 106.374C104.565 106.309 104.476 106.292 104.41 106.336C104.035 106.593 103.633 106.844 103.203 107.089C103.131 107.128 103.108 107.215 103.149 107.284C103.186 107.353 103.275 107.377 103.344 107.338C103.782 107.09 104.19 106.835 104.574 106.573Z" fill="#C9B3F8"/>
<path d="M102.067 108.003C102.136 107.969 102.167 107.883 102.133 107.811C102.098 107.74 102.012 107.71 101.941 107.744C101.528 107.942 101.092 108.134 100.633 108.322C100.559 108.352 100.524 108.436 100.556 108.509C100.584 108.582 100.667 108.618 100.742 108.588C101.207 108.398 101.648 108.203 102.067 108.003Z" fill="#C9B3F8"/>
<path d="M99.3995 109.097C99.4741 109.071 99.5114 108.989 99.4856 108.914C99.4598 108.84 99.3766 108.801 99.302 108.827C98.869 108.98 98.4188 109.129 97.9485 109.274C97.8739 109.297 97.8309 109.378 97.8538 109.453C97.8768 109.529 97.9571 109.571 98.0345 109.548C98.5077 109.402 98.9608 109.252 99.3995 109.097Z" fill="#C9B3F8"/>
<path d="M96.6528 109.948C96.7303 109.927 96.7761 109.848 96.7532 109.772C96.7331 109.696 96.6557 109.65 96.5783 109.671C96.3489 109.733 96.1166 109.795 95.8785 109.855C95.6463 109.915 95.4111 109.971 95.1788 110.026C95.1014 110.044 95.0527 110.121 95.0699 110.198C95.0899 110.275 95.1674 110.323 95.2419 110.305C95.4799 110.25 95.7151 110.193 95.9474 110.133C96.1882 110.072 96.4234 110.01 96.6528 109.948Z" fill="#C9B3F8"/>
<path d="M93.8194 110.609C93.8968 110.594 93.9485 110.519 93.9341 110.441C93.9198 110.363 93.8423 110.312 93.7649 110.327C93.2946 110.419 92.8214 110.502 92.3425 110.578C92.2651 110.591 92.2106 110.664 92.225 110.742C92.2364 110.821 92.311 110.874 92.3884 110.861C92.8702 110.785 93.3462 110.701 93.8194 110.609Z" fill="#C9B3F8"/>
<path d="M63.4188 111.054C63.8891 111.047 64.3737 111.045 64.867 111.048C64.9473 111.049 65.0104 110.985 65.0132 110.906C65.0132 110.827 64.9473 110.762 64.8698 110.762C64.3737 110.758 63.8862 110.76 63.4131 110.767C63.3328 110.768 63.2697 110.834 63.2726 110.913C63.2726 110.992 63.3385 111.055 63.4188 111.054Z" fill="#C9B3F8"/>
<path d="M90.9487 111.068C91.0261 111.058 91.0835 110.986 91.072 110.907C91.0634 110.829 90.9917 110.773 90.9114 110.783C90.4354 110.844 89.9565 110.899 89.4747 110.948C89.3973 110.956 89.3399 111.026 89.3485 111.105C89.3542 111.184 89.4259 111.241 89.5034 111.233C89.988 111.184 90.4698 111.129 90.9487 111.068Z" fill="#C9B3F8"/>
<path d="M66.3212 110.783C66.2409 110.782 66.1749 110.844 66.1749 110.923C66.172 111.003 66.2351 111.068 66.3154 111.07C66.7886 111.08 67.2704 111.094 67.7607 111.11C67.8382 111.113 67.9041 111.051 67.907 110.972C67.9099 110.892 67.8496 110.826 67.7693 110.824C67.2789 110.808 66.7943 110.794 66.3212 110.783Z" fill="#C9B3F8"/>
<path d="M61.9738 111.097C62.0512 111.094 62.1143 111.027 62.1086 110.947C62.1057 110.869 62.0398 110.807 61.9595 110.811C61.4605 110.834 60.9787 110.865 60.5141 110.907C60.4338 110.914 60.3765 110.984 60.3822 111.063C60.3908 111.142 60.4596 111.2 60.5399 111.193C60.9988 111.152 61.4777 111.12 61.9738 111.097Z" fill="#C9B3F8"/>
<path d="M69.2176 110.877C69.1402 110.874 69.0742 110.935 69.0685 111.015C69.0656 111.094 69.1287 111.16 69.2061 111.164C69.685 111.183 70.1668 111.203 70.6543 111.225C70.7346 111.228 70.8006 111.167 70.8034 111.088C70.8092 111.009 70.7461 110.942 70.6687 110.938C70.1783 110.917 69.6965 110.896 69.2176 110.877Z" fill="#C9B3F8"/>
<path d="M72.1173 111.003C72.037 111 71.971 111.061 71.9681 111.14C71.9624 111.219 72.0255 111.286 72.1029 111.29L72.1144 111.291C72.5904 111.312 73.0693 111.334 73.5511 111.355C73.6314 111.358 73.6974 111.297 73.7002 111.218C73.706 111.139 73.6429 111.072 73.5655 111.069C73.0808 111.047 72.599 111.025 72.123 111.004L72.1173 111.003Z" fill="#C9B3F8"/>
<path d="M88.0585 111.361C88.136 111.355 88.1962 111.286 88.1905 111.207C88.1847 111.128 88.1159 111.069 88.0356 111.075C87.5567 111.112 87.0749 111.144 86.5932 111.17C86.5129 111.174 86.4527 111.242 86.4584 111.321C86.4613 111.4 86.5301 111.461 86.6075 111.456C87.0922 111.43 87.5768 111.398 88.0585 111.361Z" fill="#C9B3F8"/>
<path d="M59.1005 111.363C59.1808 111.351 59.2353 111.278 59.221 111.2C59.2095 111.122 59.1378 111.068 59.0575 111.08C58.5528 111.157 58.0767 111.25 57.6265 111.362C57.5491 111.381 57.5032 111.459 57.5233 111.536C57.5405 111.613 57.6208 111.66 57.6953 111.64C58.1341 111.531 58.6044 111.439 59.1005 111.363Z" fill="#C9B3F8"/>
<path d="M75.0134 111.13C74.9332 111.127 74.8672 111.188 74.8644 111.267C74.8615 111.347 74.9217 111.413 75.002 111.417C75.4809 111.436 75.9655 111.455 76.4502 111.473C76.5305 111.475 76.5964 111.413 76.5993 111.334C76.6022 111.255 76.5391 111.189 76.4616 111.186C75.9741 111.169 75.4924 111.15 75.0134 111.13Z" fill="#C9B3F8"/>
<path d="M77.91 111.232C77.8297 111.23 77.7637 111.293 77.7608 111.372C77.758 111.451 77.8211 111.517 77.9014 111.519C78.3831 111.533 78.8649 111.545 79.3524 111.554C79.4298 111.556 79.4958 111.493 79.4986 111.414C79.4986 111.335 79.4356 111.269 79.3581 111.267C78.8735 111.258 78.3889 111.246 77.91 111.232Z" fill="#C9B3F8"/>
<path d="M85.1559 111.522C85.2362 111.519 85.2964 111.453 85.2936 111.373C85.2907 111.294 85.2247 111.233 85.1473 111.236C84.6655 111.253 84.1809 111.266 83.6991 111.275C83.6217 111.276 83.5586 111.342 83.5586 111.421C83.5615 111.5 83.6246 111.563 83.7048 111.562C84.1895 111.552 84.6741 111.539 85.1559 111.522Z" fill="#C9B3F8"/>
<path d="M80.8035 111.288C80.7261 111.287 80.6602 111.351 80.6602 111.43C80.6602 111.509 80.7232 111.574 80.8035 111.575C81.2853 111.579 81.7699 111.58 82.2546 111.578C82.332 111.578 82.398 111.513 82.398 111.434C82.3951 111.355 82.332 111.291 82.2517 111.292C81.7699 111.294 81.2882 111.292 80.8035 111.288Z" fill="#C9B3F8"/>
<path d="M56.3412 112.078C56.4129 112.048 56.4473 111.964 56.4186 111.891C56.3871 111.818 56.3039 111.783 56.2322 111.813C55.9971 111.91 55.7734 112.015 55.5641 112.13C55.349 112.245 55.1454 112.376 54.9504 112.522C54.8873 112.569 54.873 112.659 54.9217 112.722C54.9676 112.786 55.0594 112.799 55.1224 112.752C55.306 112.614 55.501 112.49 55.6989 112.382C55.8996 112.273 56.1147 112.171 56.3412 112.078Z" fill="#C9B3F8"/>
<path d="M54.1278 113.704C54.1765 113.643 54.1708 113.553 54.1077 113.502C54.0475 113.451 53.9586 113.459 53.907 113.519C53.6145 113.867 53.342 114.256 53.0811 114.687C53.0409 114.755 53.061 114.843 53.1298 114.884C53.1987 114.925 53.2847 114.903 53.3277 114.835C53.58 114.415 53.8467 114.038 54.1278 113.704Z" fill="#C9B3F8"/>
<path d="M52.6685 116.069C52.703 115.998 52.6714 115.912 52.5997 115.878C52.528 115.844 52.4449 115.874 52.4104 115.946C52.2154 116.354 52.0262 116.788 51.8398 117.249C51.8111 117.322 51.8484 117.406 51.9201 117.435C51.9946 117.465 52.0778 117.429 52.1065 117.356C52.29 116.9 52.4764 116.471 52.6685 116.069Z" fill="#C9B3F8"/>
<path d="M51.6071 118.68C51.6329 118.605 51.5956 118.523 51.521 118.496C51.4465 118.47 51.3633 118.509 51.3375 118.583C51.1855 119.011 51.0335 119.457 50.8816 119.92C50.8557 119.995 50.8987 120.076 50.9733 120.101C51.0479 120.126 51.131 120.085 51.154 120.009C51.306 119.548 51.4551 119.105 51.6071 118.68Z" fill="#C9B3F8"/>
<path d="M50.7267 121.352C50.7496 121.277 50.7095 121.196 50.6321 121.173C50.5575 121.15 50.4772 121.192 50.4543 121.267C50.3166 121.705 50.1818 122.156 50.0413 122.62C50.0184 122.696 50.0614 122.776 50.1388 122.799C50.2134 122.822 50.2937 122.779 50.3166 122.703C50.4543 122.239 50.5919 121.789 50.7267 121.352Z" fill="#C9B3F8"/>
<path d="M49.9152 124.058C49.9352 123.982 49.8922 123.902 49.8176 123.88C49.7402 123.857 49.6599 123.9 49.6398 123.976C49.5509 124.277 49.4592 124.582 49.3674 124.892L49.2384 125.333C49.2154 125.409 49.2613 125.489 49.3359 125.511C49.4104 125.534 49.4907 125.49 49.5137 125.414L49.6427 124.975C49.7345 124.664 49.8263 124.358 49.9152 124.058Z" fill="#C9B3F8"/>
<path d="M49.1116 126.771C49.1345 126.695 49.0915 126.616 49.0141 126.593C48.9396 126.571 48.8593 126.614 48.8363 126.69C48.7044 127.133 48.5696 127.586 48.432 128.046C48.409 128.122 48.452 128.202 48.5266 128.225C48.604 128.248 48.6814 128.205 48.7044 128.129C48.8449 127.668 48.9797 127.215 49.1116 126.771Z" fill="#C9B3F8"/>
<path d="M48.2914 129.484C48.3172 129.408 48.2742 129.328 48.1968 129.304C48.1222 129.281 48.0419 129.324 48.019 129.399C47.8842 129.84 47.7437 130.288 47.6003 130.743C47.5745 130.819 47.6175 130.899 47.6921 130.923C47.7695 130.947 47.8498 130.905 47.8727 130.829C48.0161 130.374 48.1566 129.925 48.2914 129.484Z" fill="#C9B3F8"/>
<path d="M47.4435 132.175C47.4664 132.1 47.4263 132.018 47.3517 131.994C47.2743 131.97 47.194 132.011 47.1711 132.086C47.0277 132.527 46.8785 132.975 46.7266 133.429C46.7007 133.504 46.7409 133.585 46.8183 133.61C46.8929 133.636 46.9732 133.595 46.999 133.52C47.151 133.065 47.3001 132.617 47.4435 132.175Z" fill="#C9B3F8"/>
<path d="M46.5401 134.865C46.5659 134.791 46.5257 134.709 46.4512 134.683C46.3766 134.657 46.2963 134.697 46.2705 134.772C46.1185 135.209 45.9637 135.651 45.8031 136.099C45.7773 136.173 45.8146 136.255 45.8891 136.282C45.9637 136.308 46.0468 136.27 46.0727 136.195C46.2332 135.747 46.3881 135.303 46.5401 134.865Z" fill="#C9B3F8"/>
<path d="M45.5907 137.523C45.6165 137.449 45.5792 137.367 45.5047 137.339C45.4301 137.311 45.347 137.35 45.3211 137.424C45.1577 137.861 44.9942 138.303 44.8222 138.751C44.7935 138.824 44.8308 138.907 44.9053 138.935C44.9799 138.964 45.063 138.927 45.0888 138.853C45.2609 138.405 45.4272 137.962 45.5907 137.523Z" fill="#C9B3F8"/>
<path d="M44.578 140.17C44.6066 140.096 44.5722 140.012 44.4977 139.984C44.4231 139.955 44.34 139.992 44.3113 140.064C44.1421 140.497 43.9671 140.933 43.7865 141.372C43.7578 141.446 43.7922 141.529 43.8639 141.558C43.9385 141.59 44.0216 141.555 44.0532 141.481C44.231 141.039 44.4059 140.603 44.578 140.17Z" fill="#C9B3F8"/>
<path d="M43.5058 142.794C43.5373 142.722 43.5029 142.636 43.4312 142.605C43.3567 142.576 43.2735 142.611 43.242 142.682C43.0642 143.11 42.8778 143.54 42.6885 143.976C42.657 144.047 42.6914 144.133 42.7631 144.165C42.8348 144.196 42.9208 144.162 42.9523 144.09C43.1416 143.654 43.3251 143.221 43.5058 142.794Z" fill="#C9B3F8"/>
<path d="M42.3784 145.384C42.4129 145.312 42.3784 145.226 42.3068 145.194C42.2351 145.163 42.149 145.194 42.1175 145.266C41.9253 145.693 41.7303 146.123 41.5296 146.556C41.4952 146.628 41.5267 146.714 41.5984 146.746C41.6701 146.78 41.7561 146.749 41.7877 146.677C41.9913 146.244 42.1863 145.811 42.3784 145.384Z" fill="#C9B3F8"/>
<path d="M41.1889 147.95C41.2233 147.879 41.1946 147.795 41.123 147.761C41.0513 147.727 40.9652 147.755 40.9308 147.827C40.7301 148.251 40.5236 148.676 40.3114 149.106C40.277 149.178 40.3056 149.261 40.3773 149.298C40.449 149.332 40.5322 149.304 40.5695 149.232C40.7788 148.802 40.9882 148.375 41.1889 147.95Z" fill="#C9B3F8"/>
<path d="M39.938 150.491C39.9752 150.419 39.9466 150.333 39.8749 150.299C39.806 150.262 39.72 150.29 39.6827 150.362C39.4705 150.778 39.2554 151.199 39.0346 151.621C39.0002 151.693 39.026 151.779 39.0977 151.813C39.1666 151.85 39.2526 151.824 39.2899 151.753C39.5107 151.331 39.7258 150.91 39.938 150.491Z" fill="#C9B3F8"/>
<path d="M38.6308 153.003C38.6681 152.931 38.6423 152.845 38.5706 152.808C38.5017 152.771 38.4157 152.797 38.3784 152.865C38.1576 153.278 37.9311 153.691 37.7016 154.107C37.6644 154.179 37.6902 154.265 37.759 154.302C37.8278 154.342 37.9167 154.317 37.954 154.248C38.1834 153.829 38.41 153.413 38.6308 153.003Z" fill="#C9B3F8"/>
<path d="M108.499 112.562C115.903 107.743 115.542 99.612 114.435 96.1493C113.093 95.8886 111.722 95.6647 110.334 95.4742C113.477 111.277 79.3404 114.381 61.8818 113.959C72.7074 115.879 99.245 118.586 108.499 112.562Z" fill="#9B80D7"/>
<path d="M1.02056 156.803C2.8774 156.017 4.91977 156.86 6.17123 156.453C7.2188 158.113 7.74244 159.685 9.4014 159.421C16.0361 158.374 21.3614 153.749 23.0201 151.738C24.4169 154.534 22.9567 155.667 19.9646 157.938C18.4805 159.065 13.7663 160.333 11.5837 161.517C6.43304 164.31 -3.14046 158.563 1.02056 156.803Z" fill="#6D493B"/>
<path d="M82.8332 14.6975C82.4146 12.9513 84.29 10.478 85.2794 9.45935C85.5404 11.4673 86.8509 12.777 87.8116 13.5624C87.1979 14.6103 90.6908 29.1022 96.191 31.1099C100.59 32.7164 99.2479 36.7265 98.0234 38.5306C97.4126 38.7053 95.7035 39.2464 93.7477 40.0146C82.5723 38.4431 83.7079 30.9355 82.8332 29.9751C81.9615 29.0147 80.3011 26.8321 81.2618 24.9116C82.2224 22.9911 83.358 16.8801 82.8332 14.6975Z" fill="#FF5533"/>
<path d="M87.2867 13.1265C85.3654 17.6953 82.6755 28.2994 87.2867 34.1662C85.8902 33.293 80.4759 25.0868 87.2867 13.1265Z" fill="#FE3A13"/>
<path d="M85.9764 11.6423C85.1993 13.6096 83.774 17.6725 83.6163 19.7751C83.6191 19.9999 83.6191 20.2282 83.6191 20.4596C83.5962 20.2669 83.5962 20.0361 83.6163 19.7751C83.5876 16.5203 83.4442 13.9287 85.9764 11.6423Z" fill="#FF5533"/>
<path d="M87.9834 26.2217C89.1764 29.1315 90.0797 34.4279 96.2768 35.2136C93.3087 35.2136 88.6831 34.9515 87.9834 26.2217Z" fill="#FF5533"/>
<path d="M84.3791 31.1974C83.9719 33.5254 85.3914 38.3735 94.3329 39.1418C92.5865 38.1814 85.3398 37.3084 84.3791 31.1974Z" fill="#FE3A13"/>
<path d="M87.3727 22.0309C87.0228 26.1922 87.5992 35.0213 92.698 37.0467C89.294 36.6103 84.6685 31.1975 87.3727 22.0309Z" fill="#FE3A13"/>
<path d="M86.8482 17.2294C86.3406 19.5241 85.5319 24.3169 86.2632 25.6005C86.2833 25.6331 86.3033 25.6655 86.3263 25.6977C86.3033 25.6678 86.2833 25.6354 86.2632 25.6005C84.9297 23.5059 84.9584 20.4099 86.8482 17.2294Z" fill="#FE3A13"/>
<path d="M82.8333 29.1018C82.3086 28.2289 81.0009 27.0067 82.3086 24.3002C82.3086 25.5224 81.6977 26.6574 82.8333 29.1018Z" fill="#FE3A13"/>
<path d="M82.8332 14.6975C82.4146 12.9513 84.29 10.478 85.2794 9.45935C85.5404 11.4673 86.8509 12.777 87.8116 13.5624C87.1979 14.6103 90.6908 29.1022 96.191 31.1099C100.59 32.7164 99.2479 36.7265 98.0234 38.5306C97.4126 38.7053 95.7035 39.2464 93.7477 40.0146C82.5723 38.4431 83.7079 30.9355 82.8332 29.9751C81.9615 29.0147 80.3011 26.8321 81.2618 24.9116C82.2224 22.9911 83.358 16.8801 82.8332 14.6975Z" fill="#B22F01"/>
<path d="M87.2867 13.1265C85.3654 17.6953 82.6755 28.2994 87.2867 34.1662C85.8902 33.293 80.4759 25.0868 87.2867 13.1265Z" fill="#8B2501"/>
<path d="M85.9764 11.6423C85.1993 13.6096 83.774 17.6725 83.6163 19.7751C83.6191 19.9999 83.6191 20.2282 83.6191 20.4596C83.5962 20.2669 83.5962 20.0361 83.6163 19.7751C83.5876 16.5203 83.4442 13.9287 85.9764 11.6423Z" fill="#8B2501"/>
<path d="M87.9834 26.2217C89.1764 29.1315 90.0797 34.4279 96.2768 35.2136C93.3087 35.2136 88.6831 34.9515 87.9834 26.2217Z" fill="#8B2501"/>
<path d="M84.3791 31.1974C83.9719 33.5254 85.3914 38.3735 94.3329 39.1418C92.5865 38.1814 85.3398 37.3084 84.3791 31.1974Z" fill="#8B2501"/>
<path d="M87.3727 22.0309C87.0228 26.1922 87.5992 35.0213 92.698 37.0467C89.294 36.6103 84.6685 31.1975 87.3727 22.0309Z" fill="#8B2501"/>
<path d="M86.8482 17.2294C86.3406 19.5241 85.5319 24.3169 86.2632 25.6005C86.2833 25.6331 86.3033 25.6655 86.3263 25.6977C86.3033 25.6678 86.2833 25.6354 86.2632 25.6005C84.9297 23.5059 84.9584 20.4099 86.8482 17.2294Z" fill="#8B2501"/>
<path d="M82.8333 29.1018C82.3086 28.2289 81.0009 27.0067 82.3086 24.3002C82.3086 25.5224 81.6977 26.6574 82.8333 29.1018Z" fill="#8B2501"/>
<path d="M89.4691 2.03899C82.277 7.41678 85.0472 12.3114 87.7227 14.0865C92.5261 4.57087 109.024 17.4041 103.438 29.4516C102.6 31.9657 104.834 36.0863 106.056 37.8324C107.831 37.9489 111.398 38.7053 111.817 39.0546C112.867 40.1022 116.62 41.0626 118.539 39.8404C117.231 40.5387 115.31 38.1814 115.66 38.1814C116.096 36.6974 115.049 33.2054 114.613 32.7689C115.921 29.8006 113.042 21.5944 111.381 14.5229C109.724 7.45177 98.7232 -4.87875 89.4691 2.03899Z" fill="#FF5533"/>
<path d="M88.5081 2.91182C84.0374 7.38141 86.994 10.9434 89.119 12.2531C86.4119 -2.58812 102.302 4.13404 104.484 4.13404C96.3656 -1.01663 89.8187 1.51497 88.5081 2.91182Z" fill="#FE3A13"/>
<path d="M94.5311 7.10255C91.8269 8.14611 89.9915 8.9938 89.9055 11.1182C89.3234 6.86969 90.674 -0.00389504 100.731 6.49144C113.303 14.6105 111.993 20.4594 112.428 22.8167C102.999 8.35975 96.57 6.3168 94.5311 7.10255Z" fill="#FE3A13"/>
<path d="M111.556 33.3802C108.794 32.7358 105.852 30.0921 104.745 28.7534C104.745 30.7611 106.841 32.8565 110.77 34.4277C113.913 35.6849 114.464 38.8512 114.349 40.277C114.581 38.1818 113.649 33.8691 111.556 33.3802Z" fill="#FE3A13"/>
<path d="M107.277 26.5704C105.531 30.2021 106.549 35.8245 107.277 38.1815C95.3162 49.2688 94.0831 44.38 95.8295 39.3165C97.7136 36.6624 97.14 32.6815 96.6152 31.0228C97.9831 29.7134 102.947 26.9897 107.277 26.5704Z" fill="#FF9AA2"/>
<path d="M96.8965 35.8462C97.189 33.9209 96.7588 32.019 96.3545 31.0004C97.5274 30.1071 100.148 28.5497 103.426 27.5299C104.298 32.2117 99.0387 34.7152 96.8965 35.8462Z" fill="#E2888F"/>
<path d="M86.2857 75.311C85.9387 79.4597 83.5929 81.7229 81.4192 81.7229C76.1656 82.0228 65.3515 72.123 57.3535 64.0352C58.5121 64.1075 61.3769 60.768 60.4736 58.2144C66.4527 62.0817 78.4282 72.9993 80.7252 70.4216C83.2431 67.5929 84.112 64.0352 84.112 60.6014C84.9522 64.1218 86.5639 71.9919 86.2857 75.311Z" fill="#FFD32E"/>
<path d="M83.9687 91.7842C87.5303 93.9493 106.173 95.8876 115.049 96.5859C87.5991 97.7034 82.8933 93.8504 83.9687 91.7842Z" fill="#CCA037"/>
<path d="M90.5184 40.835C91.178 39.8181 96.6295 38.4777 96.6295 38.4777C95.8667 40.3985 95.101 44.1526 96.7987 44.1526C100.031 44.1526 104.863 39.0888 105.628 36.9934C107.257 38.4602 112.055 38.5942 113.414 38.4777C112.339 51.3993 110.102 78.0109 109.764 81.0842C109.422 84.1575 113.299 92.7254 115.281 96.6251C106.649 95.9268 83.9772 102.36 80.4385 92.1965C82.0501 87.3946 85.4225 69.6467 81.7748 61.2653C78.8527 54.5598 83.699 50.0024 86.4434 47.1213L90.5184 40.835Z" fill="#FFDA4E"/>
<path d="M109.374 81.0462C109.024 84.1192 113.01 92.6864 115.049 96.5856C113.432 96.4583 111.49 96.29 109.374 96.0864C101.43 85.1111 109.024 46.3006 109.374 43.5941C109.652 41.4292 107.237 39.9882 105.296 39.2767C106.059 38.3875 106.618 37.5541 106.842 36.9594C108.516 38.4259 111.731 38.5598 113.128 38.4434C112.021 51.3638 109.724 77.9731 109.374 81.0462Z" fill="#E1B616"/>
<path d="M83.4927 72.6442C90.0425 78.2314 107.395 82.8765 109.976 82.1595C110.512 80.9821 110.033 79.0157 109.204 76.8543L83.1543 68.9681C83.3178 69.9449 83.4497 71.1284 83.4927 72.6442Z" fill="#DCB41E"/>
<path d="M98.9842 33.0308C89.5552 38.0068 85.6264 17.8403 88.0726 12.7769C102.127 -0.929298 111.892 16.7879 109.635 22.3799C107.452 27.7927 106.308 28.7273 98.9842 33.0308Z" fill="#FF9AA2"/>
<path d="M88.0721 12.7769C102.127 -0.929298 111.888 16.7879 109.634 22.3799C107.934 26.5963 107.114 28.0952 103.262 30.5861C103.142 29.1603 102.772 26.0815 103.262 25.1736C97.6731 23.9514 99.5945 17.3164 100.816 16.7053C95.1611 9.32901 88.6227 12.2529 87.4326 15.4831C87.5359 14.379 87.7481 13.4462 88.0721 12.7769Z" fill="#E1888F"/>
<path d="M73.143 66.2921C74.0176 66.9906 76.8968 68.528 78.2934 69.4351L82.7469 64.4513C78.5572 63.8611 76.6186 61.5595 76.372 60.7181C75.9648 56.9643 74.2069 52.4638 70.4359 53.0224C65.7214 53.721 69.5641 64.7209 73.143 66.2921Z" fill="#FF9AA2"/>
<path d="M120.111 48.1338C121.229 40.6609 115.978 38.56 113.214 38.4436C108.674 40.3641 106.893 46.5758 106.719 48.8456C106.544 51.1154 106.142 68.0517 105.445 69.4486C103.389 68.3514 87.0088 65.9084 79.6905 63.5993C80.5307 65.0659 78.2939 68.5593 77.0723 68.6886C77.534 68.9605 77.9584 69.2163 78.2939 69.4354C93.4841 79.3002 105.356 81.57 109.11 81.9193C112.867 82.2683 113.303 79.3002 113.914 77.7287C114.524 76.1575 118.714 57.4751 120.111 48.1338Z" fill="#FFD433"/>
<path d="M47.6493 42.5131C47.5604 42.0798 47.8902 41.6735 48.3347 41.6735H69.5184C69.8424 41.6735 70.1263 41.8994 70.198 42.2172L73.6478 57.4076C73.7482 57.8447 73.4155 58.2608 72.9653 58.2608H51.4691C51.1393 58.2608 50.8525 58.0279 50.7866 57.7036L47.6493 42.5131Z" fill="#FB6C78"/>
<path fill-rule="evenodd" clip-rule="evenodd" d="M48.59 43.2673C48.4638 42.6568 48.9313 42.085 49.5565 42.085H69.203C69.3607 42.085 69.4898 42.2134 69.4898 42.3717C69.4898 42.53 69.3607 42.6585 69.203 42.6585H49.5565C49.2955 42.6585 49.1005 42.8974 49.1521 43.1526L49.4618 44.6713C49.4933 44.8265 49.393 44.9779 49.2381 45.0097C49.0833 45.0416 48.9313 44.9415 48.8997 44.7863L48.59 43.2673Z" fill="#ED6772"/>
<path fill-rule="evenodd" clip-rule="evenodd" d="M51.2138 54.6624C51.3687 54.6309 51.5178 54.731 51.5522 54.8861L51.9709 56.9465C52.011 57.1381 52.1802 57.2757 52.3752 57.2757H72.6183C72.7789 57.2757 72.9051 57.4042 72.9051 57.5625C72.9051 57.7208 72.7789 57.8493 72.6183 57.8493H52.3752C51.9078 57.8493 51.5035 57.5198 51.4088 57.0615L50.9902 55.0008C50.9557 54.8457 51.0561 54.6943 51.2138 54.6624Z" fill="#ED6772"/>
<path d="M60.5715 51.4511C61.4404 51.4511 62.143 50.7476 62.143 49.8799C62.143 49.0118 61.4404 48.3083 60.5715 48.3083C59.7054 48.3083 59 49.0118 59 49.8799C59 50.7476 59.7054 51.4511 60.5715 51.4511Z" fill="#ED6772"/>
<path d="M48.0883 55.2054C45.5045 52.7609 48.8167 48.9486 50.7954 47.3482C51.2313 46.9949 51.3346 48.0467 51.1424 48.5704C51.5812 47.6974 52.278 48.3086 52.1031 48.9197C52.691 48.082 53.1383 48.852 53.0753 49.2242C53.1871 48.8273 53.6775 48.7725 53.7635 49.5308C53.7635 51.8005 54.8848 50.0054 54.8848 51.9259C56.0777 52.6824 58.4464 54.2682 58.3776 56.8523C58.6501 57.1749 61.0188 58.5009 63.6628 60.2551L59.0888 65.7725C53.7779 60.9112 49.3931 56.4399 48.0883 55.2054Z" fill="#FF9AA2"/>
<path d="M89.4691 2.03899C82.277 7.41678 85.0472 12.3114 87.7227 14.0865C92.5261 4.57087 109.024 17.4041 103.438 29.4516C102.6 31.9657 104.834 36.0863 106.056 37.8324C107.831 37.9489 111.398 38.7053 111.817 39.0546C112.867 40.1022 116.62 41.0626 118.539 39.8404C117.231 40.5387 115.31 38.1814 115.66 38.1814C116.096 36.6974 115.049 33.2054 114.613 32.7689C115.921 29.8006 113.042 21.5944 111.381 14.5229C109.724 7.45177 98.7232 -4.87875 89.4691 2.03899Z" fill="#B22F01"/>
<path d="M88.5081 2.91182C84.0374 7.38141 86.994 10.9434 89.119 12.2531C86.4119 -2.58812 102.302 4.13404 104.484 4.13404C96.3656 -1.01663 89.8187 1.51497 88.5081 2.91182Z" fill="#8B2501"/>
<path d="M94.5311 7.10255C91.8269 8.14611 89.9915 8.9938 89.9055 11.1182C89.3234 6.86969 90.674 -0.00389504 100.731 6.49144C113.303 14.6105 111.993 20.4594 112.428 22.8167C102.999 8.35975 96.57 6.3168 94.5311 7.10255Z" fill="#8B2501"/>
<path d="M111.556 33.3802C108.794 32.7358 105.852 30.0921 104.745 28.7534C104.745 30.7611 106.841 32.8565 110.77 34.4277C113.913 35.6849 114.464 38.8512 114.349 40.277C114.581 38.1818 113.649 33.8691 111.556 33.3802Z" fill="#8B2501"/>
<path d="M112.692 32.6815C105.847 29.6784 104.542 24.7081 104.484 22.642C105.356 27.8801 110.945 30.5863 113.999 32.6815C116.446 34.3576 115.774 37.2793 115.135 38.5307C115.135 37.0757 114.647 33.869 112.692 32.6815Z" fill="#8B2501"/>
<path d="M114.525 33.5548C115.718 31.2268 116.566 25.5229 110.421 21.3326C112.778 24.65 114.525 25.8722 114.525 33.5548Z" fill="#8B2501"/>
<path fill-rule="evenodd" clip-rule="evenodd" d="M92.807 7.7345C91.9352 8.19075 91.5165 9.17925 91.399 9.99511C91.3932 10.0427 91.3502 10.0768 91.3015 10.0711C91.2527 10.0654 91.2183 10.0218 91.2269 9.97417C91.3473 9.13021 91.7804 8.07404 92.7267 7.57993C93.696 7.0712 95.1671 7.17874 97.3007 8.63983C97.3408 8.66707 97.3523 8.72184 97.3236 8.7617C97.2978 8.80128 97.2433 8.81046 97.2032 8.78321C95.0897 7.33732 93.6931 7.2708 92.807 7.7345Z" fill="#8B2501"/>
<path fill-rule="evenodd" clip-rule="evenodd" d="M107.857 19.867C105.643 16.3945 103.361 12.4462 101.918 9.8395C101.895 9.79735 101.909 9.74517 101.952 9.72165C101.996 9.69842 102.047 9.71275 102.07 9.75491C103.513 12.3593 105.795 16.3044 108.003 19.7732C109.119 21.5245 110.217 23.1534 111.178 24.4263C111.66 25.063 112.104 25.6095 112.503 26.038C112.864 26.4294 113.182 26.7176 113.446 26.886C113.486 26.9121 113.501 26.9654 113.478 27.0073C113.452 27.0488 113.4 27.0635 113.357 27.0377C113.073 26.857 112.741 26.5539 112.374 26.1564C111.972 25.7222 111.522 25.1708 111.04 24.5316C110.074 23.2532 108.973 21.62 107.857 19.867Z" fill="#8B2501"/>
<path fill-rule="evenodd" clip-rule="evenodd" d="M103.12 15.934C102.876 15.2105 102.724 14.673 102.669 14.4476C102.658 14.4009 102.689 14.3562 102.738 14.3484C102.787 14.3404 102.833 14.3722 102.841 14.419C102.896 14.6358 103.042 15.1608 103.286 15.8783C103.57 16.7191 103.983 17.8183 104.51 18.9829C105.566 21.3166 107.086 23.8941 108.987 25.1889C110.911 26.5011 111.946 27.4899 112.554 28.3307C113.111 29.0984 113.306 29.7399 113.504 30.3742C113.512 30.4087 113.524 30.4428 113.535 30.4769C113.547 30.5231 113.524 30.5718 113.475 30.5862C113.429 30.6008 113.38 30.575 113.366 30.5291C113.357 30.4947 113.346 30.4608 113.334 30.4267C113.139 29.793 112.95 29.1767 112.414 28.4331C111.82 27.6155 110.805 26.6399 108.886 25.3331C106.945 24.0091 105.411 21.392 104.35 19.0552C103.819 17.8843 103.406 16.7794 103.12 15.934Z" fill="#8B2501"/>
<path fill-rule="evenodd" clip-rule="evenodd" d="M110.595 20.4597C110.546 20.4623 110.506 20.4247 110.503 20.3769C110.056 12.7083 104.972 7.40195 102.411 5.65151C102.371 5.62426 102.362 5.57151 102.388 5.53165C102.416 5.4915 102.468 5.47916 102.508 5.50641C105.098 7.27692 110.225 12.6278 110.678 20.3674C110.681 20.4156 110.644 20.4571 110.595 20.4597Z" fill="#8B2501"/>
<path fill-rule="evenodd" clip-rule="evenodd" d="M86.0625 11.0534C85.5893 10.6686 85.2853 10.142 85.1362 9.74457C85.119 9.69926 85.1448 9.64994 85.1907 9.63474C85.2366 9.61954 85.2853 9.64421 85.3025 9.68923C85.4431 10.0632 85.7298 10.5584 86.1743 10.9177C86.6303 11.2885 87.2497 11.5168 88.0498 11.3189C88.0986 11.3072 88.1444 11.3341 88.1588 11.3806C88.1731 11.4271 88.1444 11.4755 88.0985 11.487C87.2354 11.7018 86.5586 11.4554 86.0625 11.0534Z" fill="#8B2501"/>
<path d="M84.9293 9.89626C83.9686 8.15012 87.1116 3.08691 95.0551 3.08691C101.33 3.08691 104.002 7.62935 105.881 12.0789L104.048 12.5153C100.38 0.206042 86.3947 4.91105 84.9293 9.89626Z" fill="#91B6D8"/>
<path d="M84.9293 9.89626C83.9686 8.15012 87.1116 3.08691 95.0551 3.08691C101.33 3.08691 104.002 7.62935 105.881 12.0789L104.966 12.2971C98.287 -2.15122 85.715 5.35669 84.9293 9.89626Z" fill="#CBE5FF"/>
<path fill-rule="evenodd" clip-rule="evenodd" d="M104.958 15.4315L104.172 12.376L104.45 12.3046L105.236 15.3601L104.958 15.4315Z" fill="#91B6D8"/>
<path fill-rule="evenodd" clip-rule="evenodd" d="M106.179 15.4304L105.305 11.9384L105.583 11.869L106.458 15.361L106.179 15.4304Z" fill="#91B6D8"/>
<path d="M105.706 11.1184L103.523 11.817L103.959 13.0392L106.142 12.3406L105.706 11.1184Z" fill="#91B6D8"/>
<path d="M106.142 12.3409L105.706 11.1184L104.617 11.4677L103.96 13.0392L106.142 12.3409Z" fill="#CBE5FF"/>
<path d="M104.745 25.0866C107.157 25.0866 109.11 22.7024 109.11 19.7613C109.11 16.8202 107.157 14.436 104.745 14.436C102.337 14.436 100.381 16.8202 100.381 19.7613C100.381 22.7024 102.337 25.0866 104.745 25.0866Z" fill="#AFD7FC"/>
<path d="M104.746 25.0866C107.157 25.0866 109.11 22.7024 109.11 19.7613C109.11 16.8202 107.157 14.436 104.746 14.436C103.555 14.436 102.477 15.0165 101.691 15.9582C103.263 18.1027 104.224 22.2058 103.263 24.7709C103.725 24.9754 104.226 25.0866 104.746 25.0866Z" fill="#85B8E7"/>
<path d="M106.23 24.5626C108.401 24.5626 110.159 22.413 110.159 19.7613C110.159 17.1092 108.401 14.9596 106.23 14.9596C104.06 14.9596 102.302 17.1092 102.302 19.7613C102.302 22.413 104.06 24.5626 106.23 24.5626Z" fill="#85B8E7"/>
<path d="M106.231 24.5626C108.401 24.5626 110.159 22.413 110.159 19.7613C110.159 17.1092 108.401 14.9596 106.231 14.9596C105.112 14.9596 104.106 15.5291 103.392 16.4436C104.57 16.8801 106.79 19.1152 106.231 24.5626Z" fill="#AFD7FC"/>
<path d="M106.927 22.4675C108.135 22.4675 109.11 21.2559 109.11 19.7613C109.11 18.2666 108.135 17.0551 106.927 17.0551C105.723 17.0551 104.745 18.2666 104.745 19.7613C104.745 21.2559 105.723 22.4675 106.927 22.4675Z" fill="#AFD7FC"/>
<path d="M106.927 22.4675C108.135 22.4675 109.11 21.2559 109.11 19.7613C109.11 18.2666 108.135 17.0551 106.927 17.0551C106.489 17.0551 106.081 17.2154 105.74 17.4915C106.864 17.9572 108.674 19.6041 106.927 22.4675Z" fill="#85B8E7"/>
<path fill-rule="evenodd" clip-rule="evenodd" d="M105.127 24.6577L105.411 24.6316C106.558 33.4885 107.519 45.8067 107.209 57.2726L107.206 57.3878C107.206 57.3893 107.206 57.3904 107.206 57.3916C106.98 65.4661 106.119 73.1212 104.238 78.8388C102.363 84.5455 99.4434 88.3842 95.0673 88.6971C92.7444 88.8628 90.8345 88.3237 89.2516 87.2543C87.6715 86.1867 86.4211 84.5971 85.4089 82.6749C83.3843 78.8345 82.2831 73.6322 81.3511 68.5113C81.2048 67.7072 81.0615 66.9049 80.9209 66.1102C80.161 61.8328 79.4412 57.771 78.3113 54.7576C77.6603 53.0258 76.8832 51.6596 75.8996 50.799L71.8905 49.9327L71.8877 49.6531C73.5538 49.2502 74.8959 49.59 75.9885 50.4991C76.0028 50.5108 76.0172 50.5223 76.0315 50.5341L102.13 56.1751C98.325 54.8562 94.0693 52.7666 90.5076 49.7824C85.2827 45.4046 81.5461 39.0934 82.9541 30.476L83.238 30.5221C81.8501 39.0154 85.5236 45.2323 90.6912 49.5625C95.5232 53.6105 101.654 56.0033 106.159 57.0457L106.908 57.2078L105.127 24.6577ZM106.096 57.3259L76.4359 50.9149C77.3076 51.8196 77.9987 53.1092 78.5809 54.6569C79.7194 57.6973 80.4478 61.7915 81.2048 66.0672C81.3454 66.8604 81.4859 67.6599 81.6321 68.46C82.567 73.586 83.6624 78.7456 85.6641 82.5413C86.662 84.4371 87.8808 85.9839 89.4122 87.0166C90.9407 88.0478 92.7846 88.5726 95.0443 88.4109C99.234 88.1118 102.096 84.4371 103.966 78.749C105.824 73.0997 106.684 65.5252 106.914 57.5043C106.65 57.4498 106.375 57.3904 106.096 57.3259ZM105.663 29.1973C106.426 36.3223 107.003 44.8927 106.98 53.2759L105.663 29.1973ZM72.6591 49.8051C73.7029 49.6847 74.5891 49.8997 75.3519 50.3875L72.6591 49.8051Z" fill="#85B8E7"/>
<path d="M105.657 24.7478C105.632 24.5565 105.457 24.4212 105.267 24.4453C105.075 24.4694 104.941 24.644 104.963 24.8356L105.044 25.4719C105.07 25.6632 105.245 25.7988 105.434 25.7745C105.626 25.7504 105.761 25.5757 105.738 25.3844L105.657 24.7478Z" fill="#85B8E7"/>
</svg>
