<svg width="12" height="50" viewBox="0 0 12 50" fill="none" xmlns="http://www.w3.org/2000/svg">
<path d="M4.95 49.9781V47.0141H5.856V49.9781H4.95ZM0.305999 38.1713C0.305999 37.8073 0.359999 37.4673 0.468 37.1513C0.575999 36.8353 0.733999 36.5633 0.942 36.3353C1.146 36.1033 1.396 35.9213 1.692 35.7893C1.988 35.6573 2.324 35.5913 2.7 35.5913C3.02 35.5913 3.316 35.6393 3.588 35.7353C3.86 35.8313 4.122 35.9613 4.374 36.1253C4.622 36.2893 4.864 36.4793 5.1 36.6953C5.332 36.9073 5.57 37.1333 5.814 37.3733L8.13 39.6353C8.086 39.4753 8.052 39.3133 8.028 39.1493C8 38.9853 7.986 38.8273 7.986 38.6753V35.7953C7.986 35.6793 8.02 35.5873 8.088 35.5193C8.156 35.4513 8.244 35.4173 8.352 35.4173H9V41.1533H8.634C8.558 41.1533 8.48 41.1393 8.4 41.1113C8.32 41.0793 8.246 41.0293 8.178 40.9613L5.412 38.2073C5.18 37.9793 4.958 37.7713 4.746 37.5833C4.53 37.3953 4.314 37.2353 4.098 37.1033C3.882 36.9673 3.664 36.8633 3.444 36.7913C3.22 36.7193 2.982 36.6833 2.73 36.6833C2.478 36.6833 2.258 36.7233 2.07 36.8033C1.878 36.8833 1.72 36.9933 1.596 37.1333C1.472 37.2733 1.38 37.4373 1.32 37.6253C1.256 37.8133 1.224 38.0153 1.224 38.2313C1.224 38.4473 1.256 38.6473 1.32 38.8313C1.384 39.0153 1.474 39.1793 1.59 39.3233C1.702 39.4633 1.836 39.5833 1.992 39.6833C2.148 39.7793 2.32 39.8473 2.508 39.8873C2.624 39.9193 2.708 39.9673 2.76 40.0313C2.812 40.0953 2.838 40.1793 2.838 40.2833C2.838 40.3033 2.838 40.3253 2.838 40.3493C2.834 40.3693 2.83 40.3933 2.826 40.4213L2.73 40.9793C2.338 40.9233 1.992 40.8153 1.692 40.6553C1.388 40.4953 1.134 40.2933 0.93 40.0493C0.726 39.8013 0.572 39.5193 0.468 39.2033C0.359999 38.8833 0.305999 38.5393 0.305999 38.1713ZM8.34 25.0072C8.236 25.0072 8.138 24.9892 8.046 24.9532C7.954 24.9132 7.874 24.8612 7.806 24.7972C7.738 24.7292 7.684 24.6492 7.644 24.5572C7.604 24.4652 7.584 24.3672 7.584 24.2632C7.584 24.1592 7.604 24.0612 7.644 23.9692C7.684 23.8772 7.738 23.7972 7.806 23.7292C7.874 23.6612 7.954 23.6092 8.046 23.5732C8.138 23.5332 8.236 23.5132 8.34 23.5132C8.448 23.5132 8.548 23.5332 8.64 23.5732C8.728 23.6092 8.806 23.6612 8.874 23.7292C8.942 23.7972 8.994 23.8772 9.03 23.9692C9.07 24.0612 9.09 24.1592 9.09 24.2632C9.09 24.3672 9.07 24.4652 9.03 24.5572C8.994 24.6492 8.942 24.7292 8.874 24.7972C8.806 24.8612 8.728 24.9132 8.64 24.9532C8.548 24.9892 8.448 25.0072 8.34 25.0072ZM9 22.0802H0.162V21.0062H3.798C3.506 20.7542 3.272 20.4662 3.096 20.1422C2.916 19.8142 2.826 19.4402 2.826 19.0202C2.826 18.6682 2.892 18.3502 3.024 18.0662C3.156 17.7822 3.354 17.5402 3.618 17.3402C3.878 17.1402 4.202 16.9862 4.59 16.8782C4.974 16.7702 5.418 16.7162 5.922 16.7162C6.37 16.7162 6.788 16.7762 7.176 16.8962C7.56 17.0162 7.894 17.1902 8.178 17.4182C8.458 17.6422 8.68 17.9182 8.844 18.2462C9.004 18.5702 9.084 18.9362 9.084 19.3442C9.084 19.7362 9.008 20.0702 8.856 20.3462C8.704 20.6182 8.492 20.8562 8.22 21.0602L8.772 21.1142C8.924 21.1462 9 21.2382 9 21.3902L9 22.0802ZM3.678 19.3682C3.678 19.7162 3.758 20.0222 3.918 20.2862C4.078 20.5462 4.304 20.7862 4.596 21.0062H7.536C7.8 20.8142 7.986 20.6022 8.094 20.3702C8.202 20.1342 8.256 19.8722 8.256 19.5842C8.256 19.0162 8.054 18.5802 7.65 18.2762C7.246 17.9722 6.67 17.8202 5.922 17.8202C5.526 17.8202 5.186 17.8562 4.902 17.9282C4.618 17.9962 4.386 18.0962 4.206 18.2282C4.022 18.3602 3.888 18.5222 3.804 18.7142C3.72 18.9062 3.678 19.1242 3.678 19.3682ZM0.162 14.2251H9V15.2931H0.162V14.2251ZM2.826 9.88275C2.826 9.43875 2.9 9.03875 3.048 8.68275C3.196 8.32275 3.406 8.01875 3.678 7.77075C3.95 7.51875 4.28 7.32675 4.668 7.19475C5.052 7.05875 5.482 6.99075 5.958 6.99075C6.438 6.99075 6.87 7.05875 7.254 7.19475C7.638 7.32675 7.966 7.51875 8.238 7.77075C8.51 8.01875 8.72 8.32275 8.868 8.68275C9.012 9.03875 9.084 9.43875 9.084 9.88275C9.084 10.3267 9.012 10.7287 8.868 11.0887C8.72 11.4447 8.51 11.7487 8.238 12.0007C7.966 12.2527 7.638 12.4467 7.254 12.5827C6.87 12.7187 6.438 12.7867 5.958 12.7867C5.482 12.7867 5.052 12.7187 4.668 12.5827C4.28 12.4467 3.95 12.2527 3.678 12.0007C3.406 11.7487 3.196 11.4447 3.048 11.0887C2.9 10.7287 2.826 10.3267 2.826 9.88275ZM8.25 9.88275C8.25 9.28275 8.05 8.83475 7.65 8.53875C7.246 8.24275 6.684 8.09475 5.964 8.09475C5.24 8.09475 4.676 8.24275 4.272 8.53875C3.868 8.83475 3.666 9.28275 3.666 9.88275C3.666 10.1867 3.718 10.4507 3.822 10.6747C3.926 10.8987 4.076 11.0867 4.272 11.2387C4.468 11.3867 4.71 11.4987 4.998 11.5747C5.282 11.6467 5.604 11.6827 5.964 11.6827C6.324 11.6827 6.646 11.6467 6.93 11.5747C7.214 11.4987 7.454 11.3867 7.65 11.2387C7.842 11.0867 7.99 10.8987 8.094 10.6747C8.198 10.4507 8.25 10.1867 8.25 9.88275ZM2.82 3.62878C2.82 3.36478 2.85 3.11878 2.91 2.89078C2.966 2.65878 3.05 2.44878 3.162 2.26078V0.610781H3.558C3.69 0.610781 3.774 0.694781 3.81 0.862781L3.906 1.55278C4.166 1.41678 4.456 1.34878 4.776 1.34878C5.072 1.34878 5.342 1.40678 5.586 1.52278C5.826 1.63478 6.032 1.79278 6.204 1.99678C6.376 2.19678 6.508 2.43678 6.6 2.71678C6.692 2.99278 6.738 3.29678 6.738 3.62878C6.738 3.91278 6.704 4.18078 6.636 4.43278C6.716 4.56078 6.802 4.65878 6.894 4.72678C6.986 4.79078 7.076 4.82278 7.164 4.82278C7.308 4.82278 7.418 4.76478 7.494 4.64878C7.566 4.53278 7.618 4.37878 7.65 4.18678C7.682 3.99478 7.702 3.77678 7.71 3.53278C7.718 3.28878 7.732 3.04078 7.752 2.78878C7.768 2.53278 7.798 2.28278 7.842 2.03878C7.886 1.79478 7.958 1.57678 8.058 1.38478C8.158 1.19278 8.296 1.03878 8.472 0.922781C8.648 0.806781 8.876 0.748781 9.156 0.748781C9.416 0.748781 9.668 0.814781 9.912 0.946781C10.156 1.07478 10.372 1.26078 10.56 1.50478C10.752 1.74878 10.904 2.04678 11.016 2.39878C11.132 2.75078 11.19 3.14878 11.19 3.59278C11.19 4.03678 11.146 4.42678 11.058 4.76278C10.97 5.09478 10.852 5.37078 10.704 5.59078C10.556 5.81078 10.384 5.97678 10.188 6.08878C9.996 6.19678 9.794 6.25078 9.582 6.25078C9.282 6.25078 9.028 6.15678 8.82 5.96878C8.608 5.77678 8.44 5.51478 8.316 5.18278C8.236 5.35478 8.13 5.49278 7.998 5.59678C7.862 5.69678 7.682 5.74678 7.458 5.74678C7.37 5.74678 7.28 5.73078 7.188 5.69878C7.092 5.66678 6.998 5.61878 6.906 5.55478C6.814 5.48678 6.726 5.40478 6.642 5.30878C6.558 5.21278 6.484 5.10078 6.42 4.97278C6.252 5.27278 6.03 5.50878 5.754 5.68078C5.474 5.84878 5.148 5.93278 4.776 5.93278C4.48 5.93278 4.212 5.87678 3.972 5.76478C3.728 5.64878 3.522 5.48878 3.354 5.28478C3.182 5.08078 3.05 4.83878 2.958 4.55878C2.866 4.27478 2.82 3.96478 2.82 3.62878ZM9.33 1.73278C9.178 1.73278 9.056 1.77478 8.964 1.85878C8.872 1.94278 8.802 2.05678 8.754 2.20078C8.702 2.34478 8.664 2.51078 8.64 2.69878C8.616 2.88678 8.6 3.08478 8.592 3.29278C8.58 3.50078 8.568 3.71278 8.556 3.92878C8.544 4.14478 8.522 4.35078 8.49 4.54678C8.598 4.77478 8.73 4.96078 8.886 5.10478C9.042 5.24478 9.228 5.31478 9.444 5.31478C9.58 5.31478 9.706 5.28078 9.822 5.21278C9.942 5.14078 10.044 5.03278 10.128 4.88878C10.216 4.74478 10.284 4.56478 10.332 4.34878C10.384 4.12878 10.41 3.87078 10.41 3.57478C10.41 3.28678 10.384 3.02878 10.332 2.80078C10.28 2.57278 10.206 2.38078 10.11 2.22478C10.014 2.06478 9.9 1.94278 9.768 1.85878C9.636 1.77478 9.49 1.73278 9.33 1.73278ZM6.03 3.62878C6.03 3.41278 6 3.22278 5.94 3.05878C5.88 2.89078 5.796 2.75078 5.688 2.63878C5.58 2.52678 5.452 2.44278 5.304 2.38678C5.152 2.33078 4.986 2.30278 4.806 2.30278C4.434 2.30278 4.138 2.41678 3.918 2.64478C3.698 2.86878 3.588 3.19678 3.588 3.62878C3.588 4.05678 3.698 4.38478 3.918 4.61278C4.138 4.83678 4.434 4.94878 4.806 4.94878C4.986 4.94878 5.152 4.92078 5.304 4.86478C5.452 4.80478 5.58 4.71878 5.688 4.60678C5.796 4.49478 5.88 4.35678 5.94 4.19278C6 4.02878 6.03 3.84078 6.03 3.62878Z" fill="#C6C6D5"/>
</svg>
