<svg width="10" height="29" viewBox="0 0 10 29" fill="none" xmlns="http://www.w3.org/2000/svg">
<path d="M8.84 28.8806C8.736 28.8806 8.638 28.8626 8.546 28.8266C8.454 28.7866 8.374 28.7346 8.306 28.6706C8.238 28.6026 8.184 28.5226 8.144 28.4306C8.104 28.3386 8.084 28.2406 8.084 28.1366C8.084 28.0326 8.104 27.9346 8.144 27.8426C8.184 27.7506 8.238 27.6706 8.306 27.6026C8.374 27.5346 8.454 27.4826 8.546 27.4466C8.638 27.4066 8.736 27.3866 8.84 27.3866C8.948 27.3866 9.048 27.4066 9.14 27.4466C9.228 27.4826 9.306 27.5346 9.374 27.6026C9.442 27.6706 9.494 27.7506 9.53 27.8426C9.57 27.9346 9.59 28.0326 9.59 28.1366C9.59 28.2406 9.57 28.3386 9.53 28.4306C9.494 28.5226 9.442 28.6026 9.374 28.6706C9.306 28.7346 9.228 28.7866 9.14 28.8266C9.048 28.8626 8.948 28.8806 8.84 28.8806ZM9.5 25.9536H0.662V24.8796H4.298C4.006 24.6276 3.772 24.3396 3.596 24.0156C3.416 23.6876 3.326 23.3136 3.326 22.8936C3.326 22.5416 3.392 22.2236 3.524 21.9396C3.656 21.6556 3.854 21.4136 4.118 21.2136C4.378 21.0136 4.702 20.8596 5.09 20.7516C5.474 20.6436 5.918 20.5896 6.422 20.5896C6.87 20.5896 7.288 20.6496 7.676 20.7696C8.06 20.8896 8.394 21.0636 8.678 21.2916C8.958 21.5156 9.18 21.7916 9.344 22.1196C9.504 22.4436 9.584 22.8096 9.584 23.2176C9.584 23.6096 9.508 23.9436 9.356 24.2196C9.204 24.4916 8.992 24.7296 8.72 24.9336L9.272 24.9876C9.424 25.0196 9.5 25.1116 9.5 25.2636V25.9536ZM4.178 23.2416C4.178 23.5896 4.258 23.8956 4.418 24.1596C4.578 24.4196 4.804 24.6596 5.096 24.8796H8.036C8.3 24.6876 8.486 24.4756 8.594 24.2436C8.702 24.0076 8.756 23.7456 8.756 23.4576C8.756 22.8896 8.554 22.4536 8.15 22.1496C7.746 21.8456 7.17 21.6936 6.422 21.6936C6.026 21.6936 5.686 21.7296 5.402 21.8016C5.118 21.8696 4.886 21.9696 4.706 22.1016C4.522 22.2336 4.388 22.3956 4.304 22.5876C4.22 22.7796 4.178 22.9976 4.178 23.2416ZM3.326 16.8265C3.326 16.3825 3.4 15.9825 3.548 15.6265C3.696 15.2665 3.906 14.9625 4.178 14.7145C4.45 14.4625 4.78 14.2705 5.168 14.1385C5.552 14.0025 5.982 13.9345 6.458 13.9345C6.938 13.9345 7.37 14.0025 7.754 14.1385C8.138 14.2705 8.466 14.4625 8.738 14.7145C9.01 14.9625 9.22 15.2665 9.368 15.6265C9.512 15.9825 9.584 16.3825 9.584 16.8265C9.584 17.2705 9.512 17.6725 9.368 18.0325C9.22 18.3885 9.01 18.6925 8.738 18.9445C8.466 19.1965 8.138 19.3905 7.754 19.5265C7.37 19.6625 6.938 19.7305 6.458 19.7305C5.982 19.7305 5.552 19.6625 5.168 19.5265C4.78 19.3905 4.45 19.1965 4.178 18.9445C3.906 18.6925 3.696 18.3885 3.548 18.0325C3.4 17.6725 3.326 17.2705 3.326 16.8265ZM8.75 16.8265C8.75 16.2265 8.55 15.7785 8.15 15.4825C7.746 15.1865 7.184 15.0385 6.464 15.0385C5.74 15.0385 5.176 15.1865 4.772 15.4825C4.368 15.7785 4.166 16.2265 4.166 16.8265C4.166 17.1305 4.218 17.3945 4.322 17.6185C4.426 17.8425 4.576 18.0305 4.772 18.1825C4.968 18.3305 5.21 18.4425 5.498 18.5185C5.782 18.5905 6.104 18.6265 6.464 18.6265C6.824 18.6265 7.146 18.5905 7.43 18.5185C7.714 18.4425 7.954 18.3305 8.15 18.1825C8.342 18.0305 8.49 17.8425 8.594 17.6185C8.698 17.3945 8.75 17.1305 8.75 16.8265ZM3.326 10.1585C3.326 9.71451 3.4 9.31451 3.548 8.95851C3.696 8.59851 3.906 8.29451 4.178 8.04651C4.45 7.79451 4.78 7.60251 5.168 7.47051C5.552 7.33451 5.982 7.26651 6.458 7.26651C6.938 7.26651 7.37 7.33451 7.754 7.47051C8.138 7.60251 8.466 7.79451 8.738 8.04651C9.01 8.29451 9.22 8.59851 9.368 8.95851C9.512 9.31451 9.584 9.71451 9.584 10.1585C9.584 10.6025 9.512 11.0045 9.368 11.3645C9.22 11.7205 9.01 12.0245 8.738 12.2765C8.466 12.5285 8.138 12.7225 7.754 12.8585C7.37 12.9945 6.938 13.0625 6.458 13.0625C5.982 13.0625 5.552 12.9945 5.168 12.8585C4.78 12.7225 4.45 12.5285 4.178 12.2765C3.906 12.0245 3.696 11.7205 3.548 11.3645C3.4 11.0045 3.326 10.6025 3.326 10.1585ZM8.75 10.1585C8.75 9.55851 8.55 9.11051 8.15 8.81451C7.746 8.51851 7.184 8.37051 6.464 8.37051C5.74 8.37051 5.176 8.51851 4.772 8.81451C4.368 9.11051 4.166 9.55851 4.166 10.1585C4.166 10.4625 4.218 10.7265 4.322 10.9505C4.426 11.1745 4.576 11.3625 4.772 11.5145C4.968 11.6625 5.21 11.7745 5.498 11.8505C5.782 11.9225 6.104 11.9585 6.464 11.9585C6.824 11.9585 7.146 11.9225 7.43 11.8505C7.714 11.7745 7.954 11.6625 8.15 11.5145C8.342 11.3625 8.49 11.1745 8.594 10.9505C8.698 10.7265 8.75 10.4625 8.75 10.1585ZM0.662 4.84054H5.864V4.56454C5.864 4.48454 5.854 4.41854 5.834 4.36654C5.81 4.31454 5.764 4.25654 5.696 4.19254L3.638 2.27254C3.574 2.21254 3.522 2.15254 3.482 2.09254C3.442 2.03254 3.422 1.95254 3.422 1.85254V0.880538L5.804 3.11854C5.872 3.17454 5.932 3.23054 5.984 3.28654C6.036 3.33854 6.082 3.39854 6.122 3.46654C6.17 3.39454 6.226 3.33054 6.29 3.27454C6.35 3.21454 6.42 3.15854 6.5 3.10654L9.5 0.730538L9.5 1.69054C9.5 1.77854 9.484 1.85454 9.452 1.91854C9.416 1.97854 9.362 2.03654 9.29 2.09254L6.8 4.09054C6.716 4.15054 6.662 4.21054 6.638 4.27054C6.61 4.33054 6.596 4.42054 6.596 4.54054V4.84054H9.5V5.91454H0.662V4.84054Z" fill="#C6C6D5"/>
</svg>
