<svg width="24" height="23" viewBox="0 0 24 23" fill="none" xmlns="http://www.w3.org/2000/svg">
<path opacity="0.6" fill-rule="evenodd" clip-rule="evenodd" d="M11.9349 22.4522C18.1499 22.4522 23.1881 17.4382 23.1881 11.2531C23.1881 5.06798 18.1499 0.0539551 11.9349 0.0539551C5.71989 0.0539551 0.681641 5.06798 0.681641 11.2531C0.681641 17.4382 5.71989 22.4522 11.9349 22.4522Z" fill="#42465B"/>
<path fill-rule="evenodd" clip-rule="evenodd" d="M11.9346 19.2146C16.3528 19.2146 19.9346 15.6501 19.9346 11.253C19.9346 6.85601 16.3528 3.2915 11.9346 3.2915C7.51629 3.2915 3.93457 6.85601 3.93457 11.253C3.93457 15.6501 7.51629 19.2146 11.9346 19.2146Z" fill="#F04F5C"/>
<path fill-rule="evenodd" clip-rule="evenodd" d="M11.9136 11.2616C11.968 11.335 12.0002 11.4258 12.0002 11.524C12.0002 11.7683 11.8012 11.9663 11.5558 11.9663C11.3103 11.9663 11.1113 11.7683 11.1113 11.524C11.1113 11.2888 11.2958 11.0964 11.5287 11.0825L14.6669 4.86548L11.9136 11.2616Z" fill="#F7F6F6"/>
</svg>
