<svg width="13" height="13" viewBox="0 0 13 13" fill="none" xmlns="http://www.w3.org/2000/svg">
<path fill-rule="evenodd" clip-rule="evenodd" d="M6.10526 0.113935L0.777567 3.36975C0.356457 3.62709 0.099622 4.08504 0.0996212 4.57856L0.0996094 10.8674C0.0996094 11.6498 0.733873 12.2841 1.51628 12.2841L11.433 12.2841C12.2154 12.2841 12.8496 11.6498 12.8496 10.8674V4.57856C12.8496 4.08504 12.5928 3.62709 12.1717 3.36975L6.84398 0.113935C6.61724 -0.024632 6.33201 -0.024632 6.10526 0.113935ZM4.34962 7.32572C4.34962 6.93451 4.66675 6.61738 5.05796 6.61738H7.89129C8.28249 6.61738 8.59962 6.93451 8.59962 7.32572V9.45072C8.59962 9.84192 8.28249 10.159 7.89129 10.159H5.05796C4.66675 10.159 4.34962 9.84192 4.34962 9.45072V7.32572Z" fill="#421669"/>
</svg>
