<svg width="121" height="36" viewBox="0 0 121 36" fill="none" xmlns="http://www.w3.org/2000/svg">
<path d="M15.3437 35.6528C10.9046 35.6528 7.35776 34.2819 4.70304 31.5402C2.04832 28.7549 0.5904 24.9686 0.32928 20.1814L0.264 17.9619L0.32928 15.8077C0.5904 11.1075 2.04832 7.3648 4.70304 4.57952C7.35776 1.79424 10.9046 0.401599 15.3437 0.401599C20.1309 0.401599 23.8301 1.9248 26.4413 4.9712C29.096 8.0176 30.4234 12.152 30.4234 17.3744V18.5494C30.4234 18.9846 30.271 19.3546 29.9664 19.6592C29.7053 19.9203 29.3571 20.0509 28.9219 20.0509H6.26976V20.6384C6.40032 23.4672 7.27072 25.8826 8.88096 27.8845C10.4912 29.8864 12.6237 30.8874 15.2784 30.8874C17.3238 30.8874 18.9776 30.4957 20.2397 29.7123C21.5453 28.8854 22.5245 28.0368 23.1773 27.1664C23.569 26.6442 23.8736 26.3395 24.0912 26.2525C24.3088 26.1219 24.6787 26.0566 25.201 26.0566H28.0733C28.465 26.0566 28.7914 26.1654 29.0525 26.383C29.3571 26.6006 29.5094 26.8835 29.5094 27.2317C29.5094 28.1891 28.9219 29.3424 27.7469 30.6915C26.5718 32.0406 24.8963 33.2157 22.7203 34.2166C20.5878 35.1741 18.129 35.6528 15.3437 35.6528ZM24.4829 15.6118V15.416C24.4829 12.3696 23.656 9.88896 22.0022 7.97408C20.3485 6.0592 18.129 5.10176 15.3437 5.10176C12.5149 5.10176 10.2954 6.0592 8.68512 7.97408C7.07488 9.88896 6.26976 12.3696 6.26976 15.416V15.6118H24.4829ZM55.5741 16.3088C55.4509 17.8048 55.3893 19.1424 55.3893 20.3216C55.3893 21.1488 55.4157 21.8176 55.4685 22.328H54.8613C54.5093 20.3392 53.9813 18.94 53.2773 18.1304C52.5733 17.3208 51.5877 16.916 50.3205 16.916H49.4493C48.9037 16.916 48.5077 16.96 48.2613 17.048C48.0149 17.136 47.8477 17.312 47.7597 17.576C47.6717 17.8224 47.6277 18.2272 47.6277 18.7904V25.4432H48.5517C49.4845 25.4432 50.1885 25.1 50.6637 24.4136C51.1565 23.7272 51.4997 22.9088 51.6933 21.9584H52.3005C52.2477 22.6976 52.2213 23.5248 52.2213 24.44V25.7072C52.2213 26.6048 52.2741 27.8544 52.3797 29.456H51.7725C51.4029 27.1328 50.3293 25.9712 48.5517 25.9712H47.6277V32.0432C47.6277 32.7472 47.6981 33.2664 47.8389 33.6008C47.9973 33.9176 48.2613 34.1288 48.6309 34.2344C49.0181 34.34 49.6253 34.4016 50.4525 34.4192V35C48.2877 34.9472 46.6773 34.9208 45.6213 34.9208C44.7413 34.9208 43.6325 34.9384 42.2949 34.9736L41.4501 35V34.472C42.0309 34.4368 42.4533 34.3664 42.7173 34.2608C42.9989 34.1552 43.1837 33.9528 43.2717 33.6536C43.3773 33.3544 43.4301 32.8704 43.4301 32.2016V19.1072C43.4301 18.4384 43.3773 17.9544 43.2717 17.6552C43.1837 17.356 42.9989 17.1536 42.7173 17.048C42.4533 16.9424 42.0309 16.872 41.4501 16.8368V16.3088C43.3509 16.3616 46.2197 16.388 50.0565 16.388C52.6437 16.388 54.4829 16.3616 55.5741 16.3088ZM65.7711 20.9816C66.5631 20.9816 67.1615 21.2192 67.5663 21.6944C67.9711 22.1696 68.1735 22.7416 68.1735 23.4104C68.1735 24.0616 67.9799 24.5984 67.5927 25.0208C67.2231 25.4256 66.7303 25.628 66.1143 25.628C65.5159 25.628 65.0407 25.4784 64.6887 25.1792C64.3367 24.8624 64.1607 24.4488 64.1607 23.9384C64.1607 23.0936 64.5479 22.4072 65.3223 21.8792C65.2519 21.8616 65.1463 21.8528 65.0055 21.8528C64.8295 21.8528 64.6887 21.8704 64.5831 21.9056C63.9143 22.0112 63.3423 22.416 62.8671 23.12C62.4095 23.824 62.1807 24.5456 62.1807 25.2848V32.2808C62.1807 33.0904 62.3743 33.6536 62.7615 33.9704C63.1663 34.2872 63.7999 34.4456 64.6623 34.4456V35C64.4159 35 64.2135 34.9912 64.0551 34.9736C62.2599 34.9208 61.0631 34.8944 60.4647 34.8944C59.9895 34.8944 58.9071 34.9208 57.2175 34.9736C57.0767 34.9912 56.9007 35 56.6895 35V34.4456C57.3231 34.4456 57.7631 34.3136 58.0095 34.0496C58.2559 33.768 58.3791 33.2664 58.3791 32.5448V24.2288C58.3791 23.4192 58.2559 22.8296 58.0095 22.46C57.7631 22.0904 57.3231 21.9056 56.6895 21.9056V21.3512C57.2527 21.404 57.7983 21.4304 58.3263 21.4304C59.8927 21.4304 61.1775 21.3072 62.1807 21.0608V23.516C62.5151 22.7592 62.9991 22.152 63.6327 21.6944C64.2663 21.2192 64.9791 20.9816 65.7711 20.9816ZM72.325 14.54C73.0642 14.54 73.645 14.7248 74.0674 15.0944C74.5074 15.4464 74.7274 15.9392 74.7274 16.5728C74.7274 17.2064 74.5074 17.708 74.0674 18.0776C73.645 18.4296 73.0642 18.6056 72.325 18.6056C71.5858 18.6056 70.9962 18.4296 70.5562 18.0776C70.1338 17.708 69.9226 17.2064 69.9226 16.5728C69.9226 15.9392 70.1338 15.4464 70.5562 15.0944C70.9962 14.7248 71.5858 14.54 72.325 14.54ZM74.3842 32.5448C74.3842 33.2664 74.5074 33.768 74.7538 34.0496C75.0178 34.3136 75.4578 34.4456 76.0738 34.4456V35C74.3138 34.9296 73.1434 34.8944 72.5626 34.8944C72.017 34.8944 70.7938 34.9296 68.893 35V34.4456C69.5266 34.4456 69.9666 34.3136 70.213 34.0496C70.4594 33.768 70.5826 33.2664 70.5826 32.5448V24.2288C70.5826 23.4192 70.4594 22.8296 70.213 22.46C69.9666 22.0904 69.5266 21.9056 68.893 21.9056V21.3512C69.4562 21.404 70.0018 21.4304 70.5298 21.4304C72.0962 21.4304 73.381 21.3072 74.3842 21.0608V32.5448ZM84.8619 33.2048C86.3051 33.2048 87.4667 32.5008 88.3467 31.0928L88.8219 31.2512C88.4699 32.3952 87.8363 33.372 86.9211 34.1816C86.0235 34.9736 84.8971 35.3696 83.5419 35.3696C81.6763 35.3696 80.1891 34.78 79.0803 33.6008C77.9891 32.404 77.4435 30.644 77.4435 28.3208C77.4435 25.9448 78.0331 24.132 79.2123 22.8824C80.3915 21.6152 81.9579 20.9816 83.9115 20.9816C87.2203 20.9816 88.8747 22.9352 88.8747 26.8424H81.4563C81.4387 27.1064 81.4299 27.52 81.4299 28.0832C81.4299 29.2448 81.5883 30.2128 81.9051 30.9872C82.2395 31.7616 82.6619 32.3248 83.1723 32.6768C83.7003 33.0288 84.2635 33.2048 84.8619 33.2048ZM83.7531 21.536C83.1195 21.536 82.5915 21.932 82.1691 22.724C81.7643 23.4984 81.5091 24.704 81.4035 26.3408H85.5483C85.5835 24.9504 85.4427 23.8064 85.1259 22.9088C84.8267 21.9936 84.3691 21.536 83.7531 21.536ZM99.9496 20.9816C101.287 20.9816 102.255 21.3248 102.854 22.0112C103.153 22.3456 103.364 22.7768 103.487 23.3048C103.61 23.8328 103.672 24.5456 103.672 25.4432V32.5448C103.672 33.2664 103.795 33.768 104.042 34.0496C104.306 34.3136 104.746 34.4456 105.362 34.4456V35C103.602 34.9296 102.44 34.8944 101.877 34.8944C101.349 34.8944 100.205 34.9296 98.4448 35V34.4456C98.9728 34.4456 99.3424 34.3136 99.5536 34.0496C99.7648 33.768 99.8704 33.2664 99.8704 32.5448V24.3344C99.8704 23.6128 99.7472 23.0672 99.5008 22.6976C99.272 22.328 98.8496 22.1432 98.2336 22.1432C97.512 22.1432 96.896 22.4424 96.3856 23.0408C95.8752 23.6216 95.62 24.3432 95.62 25.2056V32.5448C95.62 33.2664 95.7256 33.768 95.9368 34.0496C96.148 34.3136 96.5176 34.4456 97.0456 34.4456V35C95.4264 34.9296 94.3352 34.8944 93.772 34.8944C93.244 34.8944 92.0296 34.9296 90.1288 35V34.4456C90.7624 34.4456 91.2024 34.3136 91.4488 34.0496C91.6952 33.768 91.8184 33.2664 91.8184 32.5448V24.2288C91.8184 23.4192 91.6952 22.8296 91.4488 22.46C91.2024 22.0904 90.7624 21.9056 90.1288 21.9056V21.3512C90.692 21.404 91.2376 21.4304 91.7656 21.4304C93.332 21.4304 94.6168 21.3072 95.62 21.0608V23.4368C96.412 21.8 97.8552 20.9816 99.9496 20.9816ZM119.214 32.096C119.214 32.9056 119.337 33.4952 119.584 33.8648C119.83 34.2344 120.27 34.4192 120.904 34.4192V34.9736C120.358 34.9208 119.812 34.8944 119.267 34.8944C117.7 34.8944 116.416 35.0176 115.412 35.264V32.9936C114.814 34.5776 113.67 35.3696 111.98 35.3696C110.326 35.3696 109.006 34.7712 108.02 33.5744C107.052 32.36 106.577 30.5384 106.595 28.1096C106.595 26.5608 106.841 25.2584 107.334 24.2024C107.844 23.1288 108.54 22.328 109.42 21.8C110.317 21.2544 111.338 20.9816 112.482 20.9816C113.767 20.9816 114.744 21.316 115.412 21.9848V17.4968C115.412 16.6872 115.28 16.0976 115.016 15.728C114.77 15.3584 114.339 15.1736 113.723 15.1736V14.6192C114.286 14.672 114.832 14.6984 115.36 14.6984C116.891 14.6984 118.176 14.5752 119.214 14.3288V32.096ZM113.063 34.2344C113.644 34.2344 114.154 34.0232 114.594 33.6008C115.052 33.1784 115.324 32.6064 115.412 31.8848V22.6448C114.972 22.0464 114.33 21.7472 113.485 21.7472C112.552 21.7472 111.831 22.284 111.32 23.3576C110.81 24.4312 110.564 26.0328 110.581 28.1624C110.564 30.3096 110.766 31.8584 111.188 32.8088C111.628 33.7592 112.253 34.2344 113.063 34.2344Z" fill="black"/>
</svg>
