<svg width="207" height="103" viewBox="0 0 207 103" fill="none" xmlns="http://www.w3.org/2000/svg">
<path d="M29.3499 66.0445C22.2474 66.0445 16.5724 63.8511 12.3249 59.4643C8.07731 55.0078 5.74464 48.9498 5.32685 41.2903L5.2224 37.7391L5.32685 34.2923C5.74464 26.772 8.07731 20.7837 12.3249 16.3272C16.5724 11.8708 22.2474 9.64256 29.3499 9.64256C37.0094 9.64256 42.9281 12.0797 47.1061 16.9539C51.3536 21.8282 53.4774 28.4432 53.4774 36.799V38.6791C53.4774 39.3754 53.2337 39.9673 52.7462 40.4547C52.3284 40.8725 51.7714 41.0814 51.0751 41.0814H14.8316V42.0214C15.0405 46.5475 16.4332 50.4121 19.0095 53.6152C21.5859 56.8182 24.9979 58.4198 29.2454 58.4198C32.5181 58.4198 35.1642 57.7931 37.1835 56.5397C39.2724 55.2167 40.8392 53.8589 41.8836 52.4662C42.5103 51.6307 42.9978 51.1432 43.3459 51.004C43.6941 50.7951 44.286 50.6906 45.1215 50.6906H49.7172C50.3439 50.6906 50.8662 50.8647 51.284 51.2129C51.7714 51.561 52.0151 52.0136 52.0151 52.5707C52.0151 54.1026 51.0751 55.9478 49.195 58.1064C47.3149 60.265 44.6341 62.1451 41.1525 63.7466C37.7405 65.2785 33.8063 66.0445 29.3499 66.0445ZM43.9726 33.9789V33.6656C43.9726 28.7914 42.6496 24.8223 40.0036 21.7585C37.3576 18.6947 33.8063 17.1628 29.3499 17.1628C24.8238 17.1628 21.2726 18.6947 18.6962 21.7585C16.1198 24.8223 14.8316 28.7914 14.8316 33.6656V33.9789H43.9726ZM93.7186 35.0941C93.5214 37.4877 93.4229 39.6278 93.4229 41.5146C93.4229 42.8381 93.4651 43.9082 93.5496 44.7248H92.5781C92.0149 41.5427 91.1701 39.304 90.0437 38.0086C88.9173 36.7133 87.3403 36.0656 85.3128 36.0656H83.9189C83.0459 36.0656 82.4123 36.136 82.0181 36.2768C81.6238 36.4176 81.3563 36.6992 81.2155 37.1216C81.0747 37.5158 81.0043 38.1635 81.0043 39.0646V49.7091H82.4827C83.9752 49.7091 85.1016 49.16 85.8619 48.0618C86.6504 46.9635 87.1995 45.6541 87.5093 44.1334H88.4808C88.3963 45.3162 88.3541 46.6397 88.3541 48.104V50.1315C88.3541 51.5677 88.4386 53.567 88.6075 56.1296H87.636C87.0446 52.4125 85.3269 50.5539 82.4827 50.5539H81.0043V60.2691C81.0043 61.3955 81.117 62.2262 81.3422 62.7613C81.5957 63.2682 82.0181 63.6061 82.6094 63.775C83.229 63.944 84.2005 64.0426 85.524 64.0707V65C82.0603 64.9155 79.4837 64.8733 77.7941 64.8733C76.3861 64.8733 74.612 64.9014 72.4718 64.9578L71.1202 65V64.1552C72.0494 64.0989 72.7253 63.9862 73.1477 63.8173C73.5982 63.6483 73.8939 63.3245 74.0347 62.8458C74.2037 62.367 74.2882 61.5926 74.2882 60.5226V39.5715C74.2882 38.5014 74.2037 37.727 74.0347 37.2483C73.8939 36.7696 73.5982 36.4458 73.1477 36.2768C72.7253 36.1078 72.0494 35.9952 71.1202 35.9389V35.0941C74.1614 35.1786 78.7515 35.2208 84.8904 35.2208C89.0299 35.2208 91.9726 35.1786 93.7186 35.0941ZM110.034 42.5706C111.301 42.5706 112.258 42.9507 112.906 43.711C113.554 44.4714 113.878 45.3866 113.878 46.4566C113.878 47.4986 113.568 48.3574 112.948 49.0333C112.357 49.681 111.569 50.0048 110.583 50.0048C109.626 50.0048 108.865 49.7654 108.302 49.2867C107.739 48.7798 107.457 48.1181 107.457 47.3014C107.457 45.9498 108.077 44.8515 109.316 44.0067C109.203 43.9786 109.034 43.9645 108.809 43.9645C108.527 43.9645 108.302 43.9926 108.133 44.049C107.063 44.2179 106.148 44.8656 105.387 45.992C104.655 47.1184 104.289 48.273 104.289 49.4557V60.6493C104.289 61.9446 104.599 62.8458 105.218 63.3526C105.866 63.8595 106.88 64.113 108.26 64.113V65C107.866 65 107.542 64.9859 107.288 64.9578C104.416 64.8733 102.501 64.831 101.544 64.831C100.783 64.831 99.0514 64.8733 96.3481 64.9578C96.1228 64.9859 95.8412 65 95.5033 65V64.113C96.517 64.113 97.221 63.9018 97.6153 63.4794C98.0095 63.0288 98.2066 62.2262 98.2066 61.0717V47.7661C98.2066 46.4707 98.0095 45.5274 97.6153 44.936C97.221 44.3446 96.517 44.049 95.5033 44.049V43.1619C96.4044 43.2464 97.2773 43.2886 98.1221 43.2886C100.628 43.2886 102.684 43.0915 104.289 42.6973V46.6256C104.824 45.4147 105.599 44.4432 106.612 43.711C107.626 42.9507 108.767 42.5706 110.034 42.5706ZM120.52 32.264C121.703 32.264 122.632 32.5597 123.308 33.151C124.012 33.7142 124.364 34.5027 124.364 35.5165C124.364 36.5302 124.012 37.3328 123.308 37.9242C122.632 38.4874 121.703 38.769 120.52 38.769C119.337 38.769 118.394 38.4874 117.69 37.9242C117.014 37.3328 116.676 36.5302 116.676 35.5165C116.676 34.5027 117.014 33.7142 117.69 33.151C118.394 32.5597 119.337 32.264 120.52 32.264ZM123.815 61.0717C123.815 62.2262 124.012 63.0288 124.406 63.4794C124.828 63.9018 125.532 64.113 126.518 64.113V65C123.702 64.8874 121.829 64.831 120.9 64.831C120.027 64.831 118.07 64.8874 115.029 65V64.113C116.043 64.113 116.747 63.9018 117.141 63.4794C117.535 63.0288 117.732 62.2262 117.732 61.0717V47.7661C117.732 46.4707 117.535 45.5274 117.141 44.936C116.747 44.3446 116.043 44.049 115.029 44.049V43.1619C115.93 43.2464 116.803 43.2886 117.648 43.2886C120.154 43.2886 122.21 43.0915 123.815 42.6973V61.0717ZM140.579 62.1277C142.888 62.1277 144.747 61.0013 146.155 58.7485L146.915 59.0019C146.352 60.8323 145.338 62.3952 143.874 63.6906C142.438 64.9578 140.635 65.5914 138.467 65.5914C135.482 65.5914 133.103 64.648 131.329 62.7613C129.583 60.8464 128.71 58.0304 128.71 54.3133C128.71 50.5117 129.653 47.6112 131.54 45.6118C133.426 43.5843 135.933 42.5706 139.058 42.5706C144.353 42.5706 147 45.6963 147 51.9478H135.13C135.102 52.3702 135.088 53.032 135.088 53.9331C135.088 55.7917 135.341 57.3405 135.848 58.5795C136.383 59.8186 137.059 60.7197 137.876 61.2829C138.721 61.8461 139.622 62.1277 140.579 62.1277ZM138.805 43.4576C137.791 43.4576 136.946 44.0912 136.271 45.3584C135.623 46.5974 135.215 48.5264 135.046 51.1453H141.677C141.734 48.9206 141.508 47.0902 141.001 45.6541C140.523 44.1898 139.791 43.4576 138.805 43.4576ZM164.719 42.5706C166.859 42.5706 168.408 43.1197 169.366 44.2179C169.844 44.753 170.182 45.4429 170.379 46.2877C170.577 47.1325 170.675 48.273 170.675 49.7091V61.0717C170.675 62.2262 170.872 63.0288 171.266 63.4794C171.689 63.9018 172.393 64.113 173.378 64.113V65C170.562 64.8874 168.704 64.831 167.803 64.831C166.958 64.831 165.128 64.8874 162.312 65V64.113C163.156 64.113 163.748 63.9018 164.086 63.4794C164.424 63.0288 164.593 62.2262 164.593 61.0717V47.935C164.593 46.7805 164.395 45.9075 164.001 45.3162C163.635 44.7248 162.959 44.4291 161.974 44.4291C160.819 44.4291 159.834 44.9078 159.017 45.8653C158.2 46.7946 157.792 47.9491 157.792 49.329V61.0717C157.792 62.2262 157.961 63.0288 158.299 63.4794C158.637 63.9018 159.228 64.113 160.073 64.113V65C157.482 64.8874 155.736 64.831 154.835 64.831C153.99 64.831 152.047 64.8874 149.006 65V64.113C150.02 64.113 150.724 63.9018 151.118 63.4794C151.512 63.0288 151.709 62.2262 151.709 61.0717V47.7661C151.709 46.4707 151.512 45.5274 151.118 44.936C150.724 44.3446 150.02 44.049 149.006 44.049V43.1619C149.907 43.2464 150.78 43.2886 151.625 43.2886C154.131 43.2886 156.187 43.0915 157.792 42.6973V46.4989C159.059 43.88 161.368 42.5706 164.719 42.5706ZM195.542 60.3536C195.542 61.649 195.739 62.5923 196.134 63.1837C196.528 63.775 197.232 64.0707 198.246 64.0707V64.9578C197.373 64.8733 196.5 64.831 195.627 64.831C193.121 64.831 191.065 65.0282 189.46 65.4224V61.7898C188.502 64.3242 186.672 65.5914 183.969 65.5914C181.322 65.5914 179.21 64.6339 177.633 62.719C176.084 60.776 175.323 57.8614 175.352 53.9754C175.352 51.4973 175.746 49.4134 176.534 47.7238C177.351 46.0061 178.463 44.7248 179.871 43.88C181.307 43.007 182.941 42.5706 184.771 42.5706C186.827 42.5706 188.39 43.1056 189.46 44.1757V36.9949C189.46 35.6995 189.249 34.7562 188.826 34.1648C188.432 33.5734 187.742 33.2778 186.756 33.2778V32.3907C187.658 32.4752 188.531 32.5174 189.375 32.5174C191.825 32.5174 193.881 32.3203 195.542 31.9261V60.3536ZM185.7 63.775C186.63 63.775 187.446 63.4371 188.15 62.7613C188.883 62.0854 189.319 61.1702 189.46 60.0157V45.2317C188.756 44.2742 187.728 43.7955 186.376 43.7955C184.884 43.7955 183.729 44.6544 182.913 46.3722C182.096 48.0899 181.702 50.6525 181.73 54.0598C181.702 57.4954 182.026 59.9734 182.701 61.4941C183.405 63.0147 184.405 63.775 185.7 63.775Z" fill="#F4F6FA"/>
<path opacity="0.8" d="M9.428 97C9.33467 97 9.25533 96.9673 9.19 96.902C9.12467 96.8367 9.092 96.7573 9.092 96.664V87.55C9.092 87.4473 9.12 87.3633 9.176 87.298C9.24133 87.2327 9.32533 87.2 9.428 87.2H10.562C10.7393 87.2 10.8793 87.2887 10.982 87.466L13.684 92.478L16.386 87.466C16.4887 87.2887 16.6287 87.2 16.806 87.2H17.926C18.0287 87.2 18.1127 87.2327 18.178 87.298C18.2433 87.3633 18.276 87.4473 18.276 87.55V96.664C18.276 96.7667 18.2433 96.8507 18.178 96.916C18.1127 96.972 18.0287 97 17.926 97H16.722C16.6287 97 16.5493 96.9673 16.484 96.902C16.4187 96.8367 16.386 96.7573 16.386 96.664V90.644L14.44 94.34C14.3373 94.5453 14.1833 94.648 13.978 94.648H13.39C13.194 94.648 13.0353 94.5453 12.914 94.34L10.968 90.644V96.664C10.968 96.7573 10.9353 96.8367 10.87 96.902C10.814 96.9673 10.7347 97 10.632 97H9.428ZM25.5993 97.14C25.1233 97.14 24.6847 97.0467 24.2833 96.86C23.8913 96.664 23.5787 96.4027 23.3453 96.076C23.1213 95.7493 23.0093 95.39 23.0093 94.998C23.0093 94.3633 23.266 93.85 23.7793 93.458C24.2927 93.066 24.9973 92.8 25.8933 92.66L27.8113 92.38V92.086C27.8113 91.6847 27.7087 91.3813 27.5033 91.176C27.298 90.9707 26.9713 90.868 26.5233 90.868C26.2153 90.868 25.968 90.924 25.7813 91.036C25.5947 91.148 25.4407 91.2647 25.3193 91.386C25.2073 91.498 25.1327 91.5727 25.0953 91.61C25.058 91.722 24.988 91.778 24.8853 91.778H23.7933C23.7093 91.778 23.6347 91.75 23.5693 91.694C23.5133 91.638 23.4853 91.5633 23.4853 91.47C23.4947 91.2367 23.6067 90.9753 23.8213 90.686C24.0453 90.3873 24.386 90.1307 24.8433 89.916C25.3007 89.692 25.8653 89.58 26.5373 89.58C27.6387 89.58 28.4413 89.8273 28.9453 90.322C29.4493 90.8167 29.7013 91.4653 29.7013 92.268V96.664C29.7013 96.7573 29.6687 96.8367 29.6033 96.902C29.5473 96.9673 29.468 97 29.3653 97H28.2033C28.11 97 28.0307 96.9673 27.9653 96.902C27.9 96.8367 27.8673 96.7573 27.8673 96.664V96.118C27.662 96.4167 27.3727 96.664 26.9993 96.86C26.626 97.0467 26.1593 97.14 25.5993 97.14ZM26.0753 95.796C26.5887 95.796 27.0087 95.628 27.3353 95.292C27.662 94.956 27.8253 94.4707 27.8253 93.836V93.556L26.4253 93.78C25.352 93.948 24.8153 94.3073 24.8153 94.858C24.8153 95.1567 24.9367 95.39 25.1793 95.558C25.4313 95.7167 25.73 95.796 26.0753 95.796ZM35.033 97C34.9397 97 34.8604 96.9673 34.795 96.902C34.7297 96.8367 34.697 96.7573 34.697 96.664V90.056C34.697 89.9533 34.7297 89.874 34.795 89.818C34.8604 89.7527 34.9397 89.72 35.033 89.72H36.195C36.2977 89.72 36.377 89.7527 36.433 89.818C36.4984 89.874 36.531 89.9533 36.531 90.056V90.63C37.1004 89.93 37.8797 89.58 38.869 89.58C39.7277 89.58 40.409 89.86 40.913 90.42C41.417 90.98 41.669 91.75 41.669 92.73V96.664C41.669 96.7573 41.6364 96.8367 41.571 96.902C41.515 96.9673 41.4357 97 41.333 97H40.073C39.9797 97 39.9004 96.9673 39.835 96.902C39.7697 96.8367 39.737 96.7573 39.737 96.664V92.814C39.737 92.2727 39.6017 91.8527 39.331 91.554C39.0697 91.246 38.6917 91.092 38.197 91.092C37.721 91.092 37.3384 91.246 37.049 91.554C36.7597 91.862 36.615 92.282 36.615 92.814V96.664C36.615 96.7573 36.5824 96.8367 36.517 96.902C36.461 96.9673 36.3817 97 36.279 97H35.033ZM48.761 97.14C48.285 97.14 47.8464 97.0467 47.445 96.86C47.053 96.664 46.7404 96.4027 46.507 96.076C46.283 95.7493 46.171 95.39 46.171 94.998C46.171 94.3633 46.4277 93.85 46.941 93.458C47.4544 93.066 48.159 92.8 49.055 92.66L50.973 92.38V92.086C50.973 91.6847 50.8704 91.3813 50.665 91.176C50.4597 90.9707 50.133 90.868 49.685 90.868C49.377 90.868 49.1297 90.924 48.943 91.036C48.7564 91.148 48.6024 91.2647 48.481 91.386C48.369 91.498 48.2944 91.5727 48.257 91.61C48.2197 91.722 48.1497 91.778 48.047 91.778H46.955C46.871 91.778 46.7964 91.75 46.731 91.694C46.675 91.638 46.647 91.5633 46.647 91.47C46.6564 91.2367 46.7684 90.9753 46.983 90.686C47.207 90.3873 47.5477 90.1307 48.005 89.916C48.4624 89.692 49.027 89.58 49.699 89.58C50.8004 89.58 51.603 89.8273 52.107 90.322C52.611 90.8167 52.863 91.4653 52.863 92.268V96.664C52.863 96.7573 52.8304 96.8367 52.765 96.902C52.709 96.9673 52.6297 97 52.527 97H51.365C51.2717 97 51.1924 96.9673 51.127 96.902C51.0617 96.8367 51.029 96.7573 51.029 96.664V96.118C50.8237 96.4167 50.5344 96.664 50.161 96.86C49.7877 97.0467 49.321 97.14 48.761 97.14ZM49.237 95.796C49.7504 95.796 50.1704 95.628 50.497 95.292C50.8237 94.956 50.987 94.4707 50.987 93.836V93.556L49.587 93.78C48.5137 93.948 47.977 94.3073 47.977 94.858C47.977 95.1567 48.0984 95.39 48.341 95.558C48.593 95.7167 48.8917 95.796 49.237 95.796ZM61.1488 100.08C60.3181 100.08 59.6461 99.94 59.1328 99.66C58.6194 99.3893 58.2554 99.0767 58.0408 98.722C57.8261 98.3673 57.7188 98.064 57.7188 97.812C57.7188 97.7187 57.7514 97.6393 57.8168 97.574C57.8821 97.518 57.9614 97.49 58.0548 97.49H59.3008C59.3848 97.49 59.4548 97.5087 59.5108 97.546C59.5761 97.5927 59.6274 97.672 59.6648 97.784C59.7674 98.0267 59.9214 98.232 60.1268 98.4C60.3321 98.5773 60.6494 98.666 61.0788 98.666C61.6388 98.666 62.0494 98.54 62.3108 98.288C62.5721 98.0453 62.7028 97.616 62.7028 97V96.048C62.1988 96.6453 61.4848 96.944 60.5608 96.944C59.5901 96.944 58.8574 96.65 58.3628 96.062C57.8774 95.474 57.6161 94.6713 57.5788 93.654L57.5648 93.276L57.5788 92.898C57.6161 91.8993 57.8821 91.0967 58.3768 90.49C58.8714 89.8833 59.5994 89.58 60.5608 89.58C61.0554 89.58 61.4894 89.6733 61.8628 89.86C62.2361 90.0467 62.5441 90.2987 62.7868 90.616V90.07C62.7868 89.9673 62.8194 89.8833 62.8848 89.818C62.9594 89.7527 63.0434 89.72 63.1368 89.72H64.2848C64.3781 89.72 64.4574 89.7527 64.5228 89.818C64.5881 89.8833 64.6208 89.9673 64.6208 90.07L64.6348 96.818C64.6348 97.854 64.3454 98.6567 63.7668 99.226C63.1881 99.7953 62.3154 100.08 61.1488 100.08ZM61.0928 95.46C61.6154 95.46 62.0074 95.292 62.2688 94.956C62.5301 94.62 62.6748 94.2093 62.7028 93.724C62.7121 93.6493 62.7168 93.5 62.7168 93.276C62.7168 93.052 62.7121 92.9027 62.7028 92.828C62.6748 92.3427 62.5301 91.932 62.2688 91.596C62.0074 91.26 61.6154 91.092 61.0928 91.092C60.0848 91.092 59.5528 91.708 59.4968 92.94L59.4828 93.276C59.4828 94.732 60.0194 95.46 61.0928 95.46ZM69.9657 88.53C69.8724 88.53 69.7931 88.4973 69.7277 88.432C69.6624 88.3667 69.6297 88.2873 69.6297 88.194V87.172C69.6297 87.0693 69.6624 86.9853 69.7277 86.92C69.7931 86.8547 69.8724 86.822 69.9657 86.822H71.2537C71.3564 86.822 71.4404 86.8547 71.5057 86.92C71.5711 86.9853 71.6037 87.0693 71.6037 87.172V88.194C71.6037 88.2873 71.5664 88.3667 71.4917 88.432C71.4264 88.4973 71.3471 88.53 71.2537 88.53H69.9657ZM70.0217 97C69.9284 97 69.8491 96.9673 69.7837 96.902C69.7184 96.8367 69.6857 96.7573 69.6857 96.664V90.056C69.6857 89.9533 69.7184 89.874 69.7837 89.818C69.8491 89.7527 69.9284 89.72 70.0217 89.72H71.2117C71.3051 89.72 71.3844 89.7527 71.4497 89.818C71.5151 89.8833 71.5477 89.9627 71.5477 90.056V96.664C71.5477 96.7573 71.5151 96.8367 71.4497 96.902C71.3844 96.9673 71.3051 97 71.2117 97H70.0217ZM76.9268 97C76.8335 97 76.7541 96.9673 76.6888 96.902C76.6235 96.8367 76.5908 96.7573 76.5908 96.664V90.056C76.5908 89.9533 76.6235 89.874 76.6888 89.818C76.7541 89.7527 76.8335 89.72 76.9268 89.72H78.0888C78.1915 89.72 78.2708 89.7527 78.3268 89.818C78.3921 89.874 78.4248 89.9533 78.4248 90.056V90.63C78.9941 89.93 79.7735 89.58 80.7628 89.58C81.6215 89.58 82.3028 89.86 82.8068 90.42C83.3108 90.98 83.5628 91.75 83.5628 92.73V96.664C83.5628 96.7573 83.5301 96.8367 83.4648 96.902C83.4088 96.9673 83.3295 97 83.2268 97H81.9668C81.8735 97 81.7941 96.9673 81.7288 96.902C81.6635 96.8367 81.6308 96.7573 81.6308 96.664V92.814C81.6308 92.2727 81.4955 91.8527 81.2248 91.554C80.9635 91.246 80.5855 91.092 80.0908 91.092C79.6148 91.092 79.2321 91.246 78.9428 91.554C78.6535 91.862 78.5088 92.282 78.5088 92.814V96.664C78.5088 96.7573 78.4761 96.8367 78.4108 96.902C78.3548 96.9673 78.2755 97 78.1728 97H76.9268ZM91.8308 100.08C91.0001 100.08 90.3281 99.94 89.8148 99.66C89.3015 99.3893 88.9375 99.0767 88.7228 98.722C88.5081 98.3673 88.4008 98.064 88.4008 97.812C88.4008 97.7187 88.4335 97.6393 88.4988 97.574C88.5641 97.518 88.6435 97.49 88.7368 97.49H89.9828C90.0668 97.49 90.1368 97.5087 90.1928 97.546C90.2581 97.5927 90.3095 97.672 90.3468 97.784C90.4495 98.0267 90.6035 98.232 90.8088 98.4C91.0141 98.5773 91.3315 98.666 91.7608 98.666C92.3208 98.666 92.7315 98.54 92.9928 98.288C93.2541 98.0453 93.3848 97.616 93.3848 97V96.048C92.8808 96.6453 92.1668 96.944 91.2428 96.944C90.2721 96.944 89.5395 96.65 89.0448 96.062C88.5595 95.474 88.2981 94.6713 88.2608 93.654L88.2468 93.276L88.2608 92.898C88.2981 91.8993 88.5641 91.0967 89.0588 90.49C89.5535 89.8833 90.2815 89.58 91.2428 89.58C91.7375 89.58 92.1715 89.6733 92.5448 89.86C92.9181 90.0467 93.2261 90.2987 93.4688 90.616V90.07C93.4688 89.9673 93.5015 89.8833 93.5668 89.818C93.6415 89.7527 93.7255 89.72 93.8188 89.72H94.9668C95.0601 89.72 95.1395 89.7527 95.2048 89.818C95.2701 89.8833 95.3028 89.9673 95.3028 90.07L95.3168 96.818C95.3168 97.854 95.0275 98.6567 94.4488 99.226C93.8701 99.7953 92.9975 100.08 91.8308 100.08ZM91.7748 95.46C92.2975 95.46 92.6895 95.292 92.9508 94.956C93.2121 94.62 93.3568 94.2093 93.3848 93.724C93.3941 93.6493 93.3988 93.5 93.3988 93.276C93.3988 93.052 93.3941 92.9027 93.3848 92.828C93.3568 92.3427 93.2121 91.932 92.9508 91.596C92.6895 91.26 92.2975 91.092 91.7748 91.092C90.7668 91.092 90.2348 91.708 90.1788 92.94L90.1648 93.276C90.1648 94.732 90.7015 95.46 91.7748 95.46ZM107.7 99.66C107.625 99.66 107.555 99.632 107.49 99.576C107.434 99.52 107.406 99.4547 107.406 99.38C107.406 99.3147 107.425 99.24 107.462 99.156L108.568 96.566L105.88 90.224C105.843 90.14 105.824 90.0747 105.824 90.028C105.833 89.944 105.866 89.874 105.922 89.818C105.978 89.7527 106.048 89.72 106.132 89.72H107.294C107.462 89.72 107.583 89.8087 107.658 89.986L109.52 94.55L111.41 89.986C111.503 89.8087 111.634 89.72 111.802 89.72H112.936C113.02 89.72 113.09 89.748 113.146 89.804C113.202 89.86 113.23 89.9253 113.23 90C113.23 90.0653 113.211 90.14 113.174 90.224L109.212 99.394C109.137 99.5713 109.007 99.66 108.82 99.66H107.7ZM120.611 97.14C119.51 97.14 118.66 96.86 118.063 96.3C117.466 95.74 117.144 94.9653 117.097 93.976L117.083 93.36L117.097 92.744C117.144 91.764 117.47 90.994 118.077 90.434C118.684 89.8647 119.528 89.58 120.611 89.58C121.684 89.58 122.524 89.8647 123.131 90.434C123.738 90.994 124.064 91.764 124.111 92.744C124.12 92.856 124.125 93.0613 124.125 93.36C124.125 93.6587 124.12 93.864 124.111 93.976C124.064 94.9653 123.742 95.74 123.145 96.3C122.548 96.86 121.703 97.14 120.611 97.14ZM120.611 95.726C121.106 95.726 121.484 95.572 121.745 95.264C122.016 94.956 122.16 94.5033 122.179 93.906C122.188 93.8127 122.193 93.6307 122.193 93.36C122.193 93.0893 122.188 92.9073 122.179 92.814C122.16 92.2167 122.016 91.764 121.745 91.456C121.474 91.1387 121.096 90.98 120.611 90.98C120.116 90.98 119.734 91.1387 119.463 91.456C119.192 91.764 119.048 92.2167 119.029 92.814L119.015 93.36L119.029 93.906C119.048 94.5033 119.192 94.956 119.463 95.264C119.734 95.572 120.116 95.726 120.611 95.726ZM131.578 97.14C130.719 97.14 130.043 96.86 129.548 96.3C129.053 95.74 128.806 94.97 128.806 93.99V90.056C128.806 89.9533 128.839 89.874 128.904 89.818C128.969 89.7527 129.049 89.72 129.142 89.72H130.402C130.495 89.72 130.575 89.7527 130.64 89.818C130.705 89.8833 130.738 89.9627 130.738 90.056V93.906C130.738 95.054 131.237 95.628 132.236 95.628C132.721 95.628 133.104 95.474 133.384 95.166C133.673 94.858 133.818 94.438 133.818 93.906V90.056C133.818 89.9533 133.851 89.874 133.916 89.818C133.981 89.7527 134.061 89.72 134.154 89.72H135.4C135.503 89.72 135.582 89.7527 135.638 89.818C135.703 89.874 135.736 89.9533 135.736 90.056V96.664C135.736 96.7573 135.703 96.8367 135.638 96.902C135.582 96.9673 135.503 97 135.4 97H134.238C134.145 97 134.065 96.9673 134 96.902C133.935 96.8367 133.902 96.7573 133.902 96.664V96.09C133.389 96.79 132.614 97.14 131.578 97.14ZM141.121 97C141.028 97 140.948 96.9673 140.883 96.902C140.818 96.8367 140.785 96.7573 140.785 96.664V90.07C140.785 89.9673 140.818 89.8833 140.883 89.818C140.948 89.7527 141.028 89.72 141.121 89.72H142.269C142.372 89.72 142.456 89.7527 142.521 89.818C142.586 89.8833 142.619 89.9673 142.619 90.07V90.644C143.086 90.028 143.758 89.72 144.635 89.72H145.223C145.326 89.72 145.405 89.7527 145.461 89.818C145.526 89.874 145.559 89.9533 145.559 90.056V91.078C145.559 91.1713 145.526 91.2507 145.461 91.316C145.405 91.3813 145.326 91.414 145.223 91.414H144.117C143.678 91.414 143.333 91.54 143.081 91.792C142.829 92.044 142.703 92.3893 142.703 92.828V96.664C142.703 96.7573 142.67 96.8367 142.605 96.902C142.54 96.9673 142.46 97 142.367 97H141.121ZM158.966 97C158.116 97 157.477 96.7807 157.048 96.342C156.618 95.894 156.404 95.2407 156.404 94.382V91.218H155.298C155.204 91.218 155.125 91.1853 155.06 91.12C154.994 91.0547 154.962 90.9753 154.962 90.882V90.056C154.962 89.9627 154.994 89.8833 155.06 89.818C155.125 89.7527 155.204 89.72 155.298 89.72H156.404V87.396C156.404 87.2933 156.436 87.214 156.502 87.158C156.567 87.0927 156.646 87.06 156.74 87.06H157.902C158.004 87.06 158.084 87.0927 158.14 87.158C158.205 87.214 158.238 87.2933 158.238 87.396V89.72H159.988C160.081 89.72 160.16 89.7527 160.226 89.818C160.291 89.8833 160.324 89.9627 160.324 90.056V90.882C160.324 90.9753 160.291 91.0547 160.226 91.12C160.16 91.1853 160.081 91.218 159.988 91.218H158.238V94.228C158.238 94.6293 158.308 94.9327 158.448 95.138C158.588 95.3433 158.816 95.446 159.134 95.446H160.114C160.216 95.446 160.296 95.4787 160.352 95.544C160.417 95.6 160.45 95.6793 160.45 95.782V96.664C160.45 96.7573 160.417 96.8367 160.352 96.902C160.296 96.9673 160.216 97 160.114 97H158.966ZM167.005 97.14C166.529 97.14 166.09 97.0467 165.689 96.86C165.297 96.664 164.984 96.4027 164.751 96.076C164.527 95.7493 164.415 95.39 164.415 94.998C164.415 94.3633 164.671 93.85 165.185 93.458C165.698 93.066 166.403 92.8 167.299 92.66L169.217 92.38V92.086C169.217 91.6847 169.114 91.3813 168.909 91.176C168.703 90.9707 168.377 90.868 167.929 90.868C167.621 90.868 167.373 90.924 167.187 91.036C167 91.148 166.846 91.2647 166.725 91.386C166.613 91.498 166.538 91.5727 166.501 91.61C166.463 91.722 166.393 91.778 166.291 91.778H165.199C165.115 91.778 165.04 91.75 164.975 91.694C164.919 91.638 164.891 91.5633 164.891 91.47C164.9 91.2367 165.012 90.9753 165.227 90.686C165.451 90.3873 165.791 90.1307 166.249 89.916C166.706 89.692 167.271 89.58 167.943 89.58C169.044 89.58 169.847 89.8273 170.351 90.322C170.855 90.8167 171.107 91.4653 171.107 92.268V96.664C171.107 96.7573 171.074 96.8367 171.009 96.902C170.953 96.9673 170.873 97 170.771 97H169.609C169.515 97 169.436 96.9673 169.371 96.902C169.305 96.8367 169.273 96.7573 169.273 96.664V96.118C169.067 96.4167 168.778 96.664 168.405 96.86C168.031 97.0467 167.565 97.14 167.005 97.14ZM167.481 95.796C167.994 95.796 168.414 95.628 168.741 95.292C169.067 94.956 169.231 94.4707 169.231 93.836V93.556L167.831 93.78C166.757 93.948 166.221 94.3073 166.221 94.858C166.221 95.1567 166.342 95.39 166.585 95.558C166.837 95.7167 167.135 95.796 167.481 95.796ZM178.875 97.14C178.165 97.14 177.573 97.0327 177.097 96.818C176.621 96.6033 176.266 96.356 176.033 96.076C175.809 95.7867 175.697 95.5393 175.697 95.334C175.697 95.2407 175.725 95.166 175.781 95.11C175.846 95.054 175.921 95.026 176.005 95.026H177.153C177.227 95.026 177.293 95.0633 177.349 95.138C177.395 95.1753 177.498 95.264 177.657 95.404C177.825 95.544 178.011 95.656 178.217 95.74C178.431 95.8147 178.665 95.852 178.917 95.852C179.29 95.852 179.593 95.782 179.827 95.642C180.06 95.4927 180.177 95.2827 180.177 95.012C180.177 94.8253 180.121 94.676 180.009 94.564C179.906 94.4427 179.715 94.3353 179.435 94.242C179.164 94.1393 178.753 94.0273 178.203 93.906C177.409 93.738 176.821 93.4813 176.439 93.136C176.065 92.7907 175.879 92.3333 175.879 91.764C175.879 91.3907 175.991 91.0407 176.215 90.714C176.439 90.378 176.77 90.1073 177.209 89.902C177.657 89.6873 178.189 89.58 178.805 89.58C179.439 89.58 179.985 89.6827 180.443 89.888C180.9 90.084 181.245 90.322 181.479 90.602C181.721 90.882 181.843 91.1293 181.843 91.344C181.843 91.428 181.81 91.5027 181.745 91.568C181.689 91.624 181.619 91.652 181.535 91.652H180.485C180.382 91.652 180.303 91.6147 180.247 91.54C180.181 91.4933 180.074 91.4093 179.925 91.288C179.785 91.1573 179.626 91.0547 179.449 90.98C179.271 90.9053 179.057 90.868 178.805 90.868C178.459 90.868 178.193 90.9427 178.007 91.092C177.82 91.2413 177.727 91.4373 177.727 91.68C177.727 91.848 177.769 91.988 177.853 92.1C177.946 92.212 178.128 92.3193 178.399 92.422C178.669 92.5153 179.075 92.6133 179.617 92.716C181.297 93.0427 182.137 93.7753 182.137 94.914C182.137 95.5767 181.847 96.1133 181.269 96.524C180.699 96.9347 179.901 97.14 178.875 97.14ZM187.117 97C187.024 97 186.945 96.9673 186.879 96.902C186.814 96.8367 186.781 96.7573 186.781 96.664V87.396C186.781 87.2933 186.814 87.214 186.879 87.158C186.945 87.0927 187.024 87.06 187.117 87.06H188.279C188.373 87.06 188.452 87.0927 188.517 87.158C188.583 87.2233 188.615 87.3027 188.615 87.396V92.184L190.939 89.958C190.967 89.9393 191.009 89.9067 191.065 89.86C191.131 89.804 191.191 89.7667 191.247 89.748C191.303 89.7293 191.373 89.72 191.457 89.72H192.787C192.881 89.72 192.955 89.748 193.011 89.804C193.067 89.86 193.095 89.9347 193.095 90.028C193.095 90.112 193.049 90.196 192.955 90.28L190.099 92.982L193.305 96.454C193.389 96.538 193.431 96.6173 193.431 96.692C193.431 96.7853 193.403 96.86 193.347 96.916C193.291 96.972 193.221 97 193.137 97H191.779C191.649 97 191.551 96.986 191.485 96.958C191.429 96.9207 191.355 96.8553 191.261 96.762L188.615 93.948V96.664C188.615 96.7573 188.583 96.8367 188.517 96.902C188.452 96.9673 188.373 97 188.279 97H187.117Z" fill="#F4F6FA"/>
</svg>
