<svg width="362" height="569" viewBox="0 0 362 569" fill="none" xmlns="http://www.w3.org/2000/svg">
<path d="M273.586 553.245C287.688 561.718 305.989 557.155 314.462 543.053C322.936 528.951 318.373 510.65 304.271 502.176C290.168 493.703 271.867 498.266 263.394 512.368C254.92 526.47 259.483 544.771 273.586 553.245Z" fill="#FBDB27"/>
<path d="M263.847 530.017C267.052 531.943 273.085 527.788 277.322 520.737C281.559 513.685 282.395 506.408 279.19 504.483C275.985 502.557 269.952 506.712 265.715 513.763C261.479 520.814 260.642 528.091 263.847 530.017Z" fill="#FDBF3F"/>
<path d="M146.351 257.563C141.224 248.684 129.871 245.641 120.991 250.768C112.112 255.894 109.07 267.248 114.196 276.127C119.323 285.006 130.677 288.049 139.556 282.922C148.435 277.796 151.477 266.442 146.351 257.563Z" fill="#BA202F"/>
<path d="M126.831 274.549C122.151 272.457 117.586 272.486 116.635 274.613C115.684 276.741 118.708 280.161 123.388 282.253C128.068 284.345 132.633 284.316 133.584 282.188C134.535 280.061 131.511 276.641 126.831 274.549Z" fill="#80121D"/>
<path d="M35.7469 337.488C55.4893 337.488 71.4937 321.309 71.4937 301.351C71.4937 281.392 55.4893 265.213 35.7469 265.213C16.0044 265.213 0 281.392 0 301.351C0 321.309 16.0044 337.488 35.7469 337.488Z" fill="#05053D"/>
<path d="M26.2149 288.048C34.2091 282.194 38.5559 274.47 35.9238 270.797C33.2916 267.123 24.6772 268.891 16.6829 274.745C8.6887 280.599 4.3419 288.323 6.97409 291.996C9.60627 295.67 18.2207 293.902 26.2149 288.048Z" fill="#EDEDFF"/>
<path d="M115.191 26.3968C122.475 26.3968 128.381 20.6427 128.381 13.5446C128.381 6.44643 122.475 0.692261 115.191 0.692261C107.906 0.692261 102 6.44643 102 13.5446C102 20.6427 107.906 26.3968 115.191 26.3968Z" fill="#FEFCDA"/>
<path d="M111.673 8.81342C114.623 6.73142 116.227 3.98453 115.256 2.67806C114.284 1.3716 111.106 2.0003 108.156 4.0823C105.206 6.1643 103.602 8.9112 104.573 10.2177C105.545 11.5241 108.723 10.8954 111.673 8.81342Z" fill="#DCDAB3"/>
<path opacity="0.1" d="M190.76 305.023L191.466 308.948C191.466 308.948 193.592 307.773 193.945 308.948C194.298 310.124 196.777 312.873 196.777 312.873L198.196 310.515L190.76 305.023Z" fill="black"/>
<path d="M316.785 197.998L344.522 191.981C344.522 191.981 351.287 166.409 359.405 169.417C367.524 172.426 353.993 197.998 353.993 197.998L315.432 217.554L316.785 197.998Z" fill="#FCA9A2"/>
<path d="M148.332 223.571L136.155 240.87C136.155 240.87 118.566 240.118 123.978 250.648C129.39 261.177 141.567 255.16 142.244 252.904C142.92 250.648 162.539 231.092 162.539 231.092L148.332 223.571Z" fill="#FCA9A2"/>
<path d="M198.057 203.639L208.204 197.622C208.204 197.622 251.502 193.862 267.738 205.896C283.974 217.93 199.41 219.434 199.41 219.434L198.057 203.639Z" fill="black"/>
<path d="M180.129 279.229L160.51 277.724L163.892 284.494C163.892 284.494 136.832 293.519 145.626 319.092C154.421 344.664 167.951 368.732 167.951 368.732L176.746 387.536C176.746 387.536 195.012 390.544 195.689 384.527C196.365 378.51 195.689 375.502 192.306 372.493C188.923 369.485 186.894 363.468 186.894 360.459C186.894 357.45 187.57 354.442 185.541 352.938C183.511 351.433 182.835 349.177 182.835 344.664C182.835 340.151 175.393 323.604 175.393 323.604C175.393 323.604 199.071 322.852 206.513 329.622C213.955 336.391 238.309 361.963 238.309 361.963C239.656 363.53 240.795 365.303 241.692 367.228C243.045 370.237 243.045 371.741 245.751 373.245C248.457 374.749 246.428 380.767 245.751 381.519C245.074 382.271 238.309 412.356 238.309 412.356C238.309 412.356 230.868 426.647 238.986 427.399C247.104 428.151 254.546 428.903 255.222 427.399C255.974 425.314 256.879 423.301 257.928 421.382C259.958 417.621 257.928 409.348 257.928 409.348C257.928 409.348 277.547 381.519 271.459 364.22C265.37 346.921 252.516 307.81 252.516 307.81L232.897 298.784L197.042 284.494L180.129 279.229Z" fill="black"/>
<path d="M177.043 387.734C174.158 390.612 178.582 394.571 173.364 401.826C168.146 409.081 157.029 421.92 167.275 419.125C177.522 416.33 184.741 411.664 187.82 409.955C190.899 408.246 199.273 399.836 198.596 394.571C197.92 389.306 196.366 385.279 194.336 383.775C192.307 382.271 179.928 384.855 177.043 387.734Z" fill="#FCA9A2"/>
<path d="M237.632 422.134C237.632 422.134 231.544 427.399 234.926 437.176C238.309 446.954 243.045 457.484 243.045 457.484C243.045 457.484 248.457 476.287 257.252 473.279C260.824 472.057 262.611 468.724 263.473 465.198C264.73 459.807 263.835 454.075 261.016 449.471L255.898 440.937L250.486 425.142L237.632 422.134Z" fill="#FCA9A2"/>
<path d="M220.72 201.007C220.72 201.007 212.601 200.255 211.248 202.511C209.895 204.767 203.807 234.853 211.248 237.861C218.69 240.87 241.015 246.135 244.398 242.374C247.78 238.613 249.133 205.52 249.133 205.52L220.72 201.007Z" fill="#A0616A"/>
<path d="M220.72 201.007C220.72 201.007 212.601 200.255 211.248 202.511C209.895 204.767 203.807 234.853 211.248 237.861C218.69 240.87 241.015 246.135 244.398 242.374C247.78 238.613 249.133 205.52 249.133 205.52L220.72 201.007Z" fill="#E88B82"/>
<path d="M208.542 225.827C208.542 225.827 218.014 236.357 224.102 234.853C230.191 233.348 244.398 226.579 245.751 223.571C247.104 220.562 264.017 219.81 264.017 219.81L245.751 276.22L258.605 323.604C258.605 323.604 266.046 313.827 245.751 313.075C225.455 312.322 198.394 301.04 193.659 285.998C193.659 285.998 163.892 281.485 162.539 280.733C161.186 279.981 165.922 275.468 165.922 275.468L185.541 269.451L199.748 249.143L208.542 225.827Z" fill="white"/>
<path d="M214.631 202.511C214.631 202.511 218.013 197.246 214.631 197.246C211.248 197.246 201.777 197.246 198.394 197.998C195.012 198.75 182.158 194.99 180.805 199.503C179.452 204.015 179.452 231.844 182.158 234.101C184.864 236.357 186.217 236.357 182.834 240.87C179.452 245.383 171.333 260.425 173.363 265.69C175.393 270.955 151.714 272.459 155.097 278.476C156.961 281.967 160.249 284.216 163.892 284.494C163.892 284.494 168.924 282.576 177.042 288.593C185.16 294.61 192.305 299.536 201.1 289.758C209.895 279.981 213.278 270.955 213.954 258.169C214.631 245.383 213.954 237.109 212.601 229.588C211.248 222.067 214.631 202.511 214.631 202.511Z" fill="black"/>
<path d="M249.81 216.802C249.81 216.802 255.222 222.066 249.81 234.853C244.398 247.639 230.191 277.724 241.692 297.28C253.192 316.835 257.928 322.1 255.222 325.861C253.576 328.244 252.631 331.133 252.516 334.134L259.958 331.126C259.958 331.126 261.311 320.596 264.017 313.075C266.723 305.553 258.605 282.989 258.605 282.989L261.311 253.656C261.311 253.656 272.135 234.853 273.488 234.101C274.841 233.348 270.782 201.007 270.782 201.007C270.782 201.007 264.017 198.75 260.634 201.007C257.252 203.263 249.81 216.802 249.81 216.802Z" fill="black"/>
<path d="M184.864 200.255H180.805L153.068 216.049C153.068 216.049 149.009 218.511 145.626 220.015C142.244 221.519 155.774 237.109 159.157 235.605C162.539 234.101 163.216 233.348 166.598 234.853C169.981 236.357 167.951 238.613 172.687 236.357C177.423 234.101 189.6 234.853 189.6 234.853L184.864 200.255Z" fill="black"/>
<path d="M266.046 202.511L270.782 201.007C270.782 201.007 284.988 202.511 288.371 202.511C291.754 202.511 295.136 201.759 297.166 201.759C299.195 201.759 309.343 200.255 310.696 198.75C312.049 197.246 318.138 193.485 318.814 195.742C319.491 197.998 326.933 212.289 320.167 219.058C313.402 225.827 312.049 222.819 307.99 225.827C303.931 228.836 271.458 234.853 270.782 234.101C270.105 233.349 266.046 202.511 266.046 202.511Z" fill="black"/>
<path d="M238.309 231.092C249.518 231.092 258.605 220.99 258.605 208.528C258.605 196.066 249.518 185.964 238.309 185.964C227.1 185.964 218.014 196.066 218.014 208.528C218.014 220.99 227.1 231.092 238.309 231.092Z" fill="#FCA9A2"/>
<path d="M238.31 177.759C230.926 177.487 215.308 186.784 217.338 199.571C219.367 212.357 225.456 227.4 238.31 226.647C251.163 225.895 257.097 213.383 257.929 210.34C258.76 207.298 258.637 197.999 254.546 189.041C250.455 180.083 245.694 178.031 238.31 177.759Z" fill="black"/>
</svg>
