<svg width="87" height="92" viewBox="0 0 87 92" fill="none" xmlns="http://www.w3.org/2000/svg">
<g filter="url(#filter0_d_3_2213)">
<path d="M32 28.8C32 24.3196 32 22.0794 32.8719 20.3681C33.6389 18.8628 34.8628 17.6389 36.3681 16.8719C38.0794 16 40.3196 16 44.8 16H60V31.2C60 35.6804 60 37.9206 59.1281 39.6319C58.3611 41.1372 57.1372 42.3611 55.6319 43.1281C53.9206 44 51.6804 44 47.2 44H44.8C40.3196 44 38.0794 44 36.3681 43.1281C34.8628 42.3611 33.6389 41.1372 32.8719 39.6319C32 37.9206 32 35.6804 32 31.2V28.8Z" fill="white"/>
</g>
<path fill-rule="evenodd" clip-rule="evenodd" d="M49.75 30.75H50.875C51.4963 30.75 52 31.2537 52 31.875C52 32.4963 51.4963 33 50.875 33H41.125C40.5037 33 40 32.4963 40 31.875C40 31.2537 40.5037 30.75 41.125 30.75H42.25L42.6687 26.9817C42.8573 25.2842 44.2921 24 46 24C47.7079 24 49.1427 25.2842 49.3313 26.9817L49.75 30.75Z" fill="#818193"/>
<rect x="44.5" y="33.75" width="3" height="3" rx="1.5" fill="#CECED4"/>
<g filter="url(#filter1_d_3_2213)">
<path d="M59 20C60.6569 20 62 18.6569 62 17C62 15.3431 60.6569 14 59 14C57.3431 14 56 15.3431 56 17C56 18.6569 57.3431 20 59 20Z" fill="#FF0000"/>
</g>
<defs>
<filter id="filter0_d_3_2213" x="0" y="0" width="92" height="92" filterUnits="userSpaceOnUse" color-interpolation-filters="sRGB">
<feFlood flood-opacity="0" result="BackgroundImageFix"/>
<feColorMatrix in="SourceAlpha" type="matrix" values="0 0 0 0 0 0 0 0 0 0 0 0 0 0 0 0 0 0 127 0" result="hardAlpha"/>
<feOffset dy="16"/>
<feGaussianBlur stdDeviation="16"/>
<feColorMatrix type="matrix" values="0 0 0 0 0.643176 0 0 0 0 0.643176 0 0 0 0 0.643176 0 0 0 0.295743 0"/>
<feBlend mode="normal" in2="BackgroundImageFix" result="effect1_dropShadow_3_2213"/>
<feBlend mode="normal" in="SourceGraphic" in2="effect1_dropShadow_3_2213" result="shape"/>
</filter>
<filter id="filter1_d_3_2213" x="52" y="12" width="14" height="14" filterUnits="userSpaceOnUse" color-interpolation-filters="sRGB">
<feFlood flood-opacity="0" result="BackgroundImageFix"/>
<feColorMatrix in="SourceAlpha" type="matrix" values="0 0 0 0 0 0 0 0 0 0 0 0 0 0 0 0 0 0 127 0" result="hardAlpha"/>
<feOffset dy="2"/>
<feGaussianBlur stdDeviation="2"/>
<feColorMatrix type="matrix" values="0 0 0 0 1 0 0 0 0 0 0 0 0 0 0 0 0 0 0.139974 0"/>
<feBlend mode="normal" in2="BackgroundImageFix" result="effect1_dropShadow_3_2213"/>
<feBlend mode="normal" in="SourceGraphic" in2="effect1_dropShadow_3_2213" result="shape"/>
</filter>
</defs>
</svg>
