<svg width="50" height="50" viewBox="0 0 50 50" fill="none" xmlns="http://www.w3.org/2000/svg">
<path fill-rule="evenodd" clip-rule="evenodd" d="M0 13.77C0 6.16504 6.16504 0 13.77 0H36.23C43.835 0 50 6.16504 50 13.77V36.23C50 43.835 43.835 50 36.23 50H13.77C6.16504 50 0 43.835 0 36.23V13.77Z" fill="#DA2C41"/>
<g filter="url(#filter0_d_3_1976)">
<path fill-rule="evenodd" clip-rule="evenodd" d="M34.9045 26.1385H32.712L31.896 18.7496C31.5284 15.4212 28.7321 12.9032 25.4035 12.9032C22.0749 12.9032 19.2786 15.4212 18.9111 18.7496L18.095 26.1385H15.9025C14.6916 26.1385 13.71 27.1261 13.71 28.3444C13.71 29.5627 14.6916 30.5503 15.9025 30.5503H34.9045C36.1154 30.5503 37.0971 29.5627 37.0971 28.3444C37.0971 27.1261 36.1154 26.1385 34.9045 26.1385ZM25.4035 32.0208C23.793 32.0208 22.4801 33.3516 22.4801 34.962C22.4801 36.5725 23.793 37.9032 25.4035 37.9032C27.014 37.9032 28.3269 36.5725 28.3269 34.962C28.3269 33.3516 27.014 32.0208 25.4035 32.0208Z" fill="url(#paint0_linear_3_1976)"/>
</g>
<defs>
<filter id="filter0_d_3_1976" x="9.70996" y="12.9032" width="31.3867" height="33" filterUnits="userSpaceOnUse" color-interpolation-filters="sRGB">
<feFlood flood-opacity="0" result="BackgroundImageFix"/>
<feColorMatrix in="SourceAlpha" type="matrix" values="0 0 0 0 0 0 0 0 0 0 0 0 0 0 0 0 0 0 127 0" result="hardAlpha"/>
<feOffset dy="4"/>
<feGaussianBlur stdDeviation="2"/>
<feColorMatrix type="matrix" values="0 0 0 0 0.818982 0 0 0 0 0.176737 0 0 0 0 0.118681 0 0 0 0.3 0"/>
<feBlend mode="normal" in2="BackgroundImageFix" result="effect1_dropShadow_3_1976"/>
<feBlend mode="normal" in="SourceGraphic" in2="effect1_dropShadow_3_1976" result="shape"/>
</filter>
<linearGradient id="paint0_linear_3_1976" x1="13.71" y1="12.9032" x2="13.71" y2="37.9032" gradientUnits="userSpaceOnUse">
<stop stop-color="white"/>
<stop offset="1" stop-color="#FE8E84"/>
</linearGradient>
</defs>
</svg>
