<svg width="18" height="15" viewBox="0 0 18 15" fill="none" xmlns="http://www.w3.org/2000/svg">
<path d="M12.5556 14V12.5555C12.5556 10.96 11.2622 9.66663 9.66667 9.66663H3.88889C2.2934 9.66663 1 10.96 1 12.5555V14" stroke="#421669" stroke-width="1.36" stroke-linecap="round" stroke-linejoin="round"/>
<path fill-rule="evenodd" clip-rule="evenodd" d="M6.77756 6.77778C8.37305 6.77778 9.66645 5.48438 9.66645 3.88889C9.66645 2.2934 8.37305 1 6.77756 1C5.18207 1 3.88867 2.2934 3.88867 3.88889C3.88867 5.48438 5.18207 6.77778 6.77756 6.77778Z" stroke="#421669" stroke-width="1.36" stroke-linecap="round" stroke-linejoin="round"/>
<path d="M16.8893 13.9999V12.5555C16.8883 11.239 15.9974 10.0896 14.7227 9.7605" stroke="#421669" stroke-width="1.36" stroke-linecap="round" stroke-linejoin="round"/>
<path d="M11.833 1.09387C13.1113 1.42116 14.0053 2.57298 14.0053 3.89248C14.0053 5.21199 13.1113 6.36381 11.833 6.69109" stroke="#421669" stroke-width="1.36" stroke-linecap="round" stroke-linejoin="round"/>
</svg>
