<svg width="35" height="34" viewBox="0 0 35 34" fill="none" xmlns="http://www.w3.org/2000/svg">
<rect x="0.799805" y="0.223999" width="33.6" height="33.6" rx="16.8" fill="black"/>
<path d="M19.8762 20.1937C19.6077 19.918 19.6077 19.4711 19.8762 19.1954C20.1447 18.9197 20.58 18.9197 20.8484 19.1954L23.5984 22.0189C23.8669 22.2946 23.8669 22.7415 23.5984 23.0172C23.33 23.2929 22.8947 23.2929 22.6262 23.0172L19.8762 20.1937Z" fill="#F4F6FA"/>
<path fill-rule="evenodd" clip-rule="evenodd" d="M12.7998 16.1652C12.7998 18.8941 14.9544 21.1064 17.6123 21.1064C20.2702 21.1064 22.4248 18.8941 22.4248 16.1652C22.4248 13.4362 20.2702 11.224 17.6123 11.224C14.9544 11.224 12.7998 13.4362 12.7998 16.1652ZM21.0498 16.1652C21.0498 18.1144 19.5108 19.6946 17.6123 19.6946C15.7138 19.6946 14.1748 18.1144 14.1748 16.1652C14.1748 14.2159 15.7138 12.6358 17.6123 12.6358C19.5108 12.6358 21.0498 14.2159 21.0498 16.1652Z" fill="#F4F6FA"/>
</svg>
