<svg width="172" height="39" viewBox="0 0 172 39" fill="none" xmlns="http://www.w3.org/2000/svg">
<path d="M7.144 4.744C7.848 4.744 8.4 4.824 8.8 4.984C9.216 5.128 9.64 5.344 10.072 5.632C10.424 5.856 10.696 5.968 10.888 5.968C11.032 5.968 11.144 5.888 11.224 5.728C11.304 5.552 11.368 5.28 11.416 4.912H11.968C11.888 5.84 11.848 7.472 11.848 9.808H11.296C11.2 8.512 10.824 7.424 10.168 6.544C9.528 5.648 8.592 5.2 7.36 5.2C6.496 5.2 5.792 5.464 5.248 5.992C4.704 6.504 4.432 7.168 4.432 7.984C4.432 8.592 4.568 9.12 4.84 9.568C5.128 10.016 5.488 10.4 5.92 10.72C6.352 11.04 6.968 11.448 7.768 11.944L8.464 12.376C9.472 13 10.264 13.552 10.84 14.032C11.432 14.496 11.904 15.032 12.256 15.64C12.608 16.248 12.784 16.96 12.784 17.776C12.784 19.232 12.304 20.36 11.344 21.16C10.384 21.944 9.168 22.336 7.696 22.336C6.928 22.336 6.296 22.256 5.8 22.096C5.32 21.936 4.856 21.72 4.408 21.448C4.056 21.224 3.784 21.112 3.592 21.112C3.448 21.112 3.336 21.2 3.256 21.376C3.176 21.536 3.112 21.8 3.064 22.168H2.512C2.576 21.288 2.608 19.368 2.608 16.408H3.16C3.272 18.024 3.672 19.336 4.36 20.344C5.048 21.352 6.104 21.856 7.528 21.856C8.392 21.856 9.128 21.592 9.736 21.064C10.344 20.52 10.648 19.72 10.648 18.664C10.648 17.768 10.344 17.008 9.736 16.384C9.144 15.76 8.2 15.056 6.904 14.272C5.96 13.696 5.192 13.184 4.6 12.736C4.024 12.288 3.552 11.752 3.184 11.128C2.816 10.488 2.632 9.744 2.632 8.896C2.632 7.552 3.064 6.528 3.928 5.824C4.792 5.104 5.864 4.744 7.144 4.744ZM20.6569 9.304C21.7289 9.304 22.6569 9.56 23.4409 10.072C24.1929 10.568 24.5689 11.184 24.5689 11.92C24.5689 12.336 24.4489 12.664 24.2089 12.904C23.9689 13.144 23.6649 13.264 23.2969 13.264C22.9289 13.264 22.6169 13.16 22.3609 12.952C22.1049 12.728 21.9769 12.432 21.9769 12.064C21.9769 11.728 22.0729 11.448 22.2649 11.224C22.4569 10.984 22.6969 10.824 22.9849 10.744C22.8249 10.456 22.5369 10.216 22.1209 10.024C21.7209 9.832 21.2889 9.736 20.8249 9.736C20.2329 9.736 19.6809 9.928 19.1689 10.312C18.6569 10.68 18.2329 11.304 17.8969 12.184C17.5609 13.048 17.3929 14.192 17.3929 15.616C17.3929 17.6 17.7129 19.048 18.3529 19.96C18.9929 20.856 19.8249 21.304 20.8489 21.304C21.5369 21.304 22.1849 21.104 22.7929 20.704C23.4169 20.304 23.9289 19.68 24.3289 18.832L24.7849 19C24.5129 19.912 24.0009 20.696 23.2489 21.352C22.5129 22.008 21.5529 22.336 20.3689 22.336C19.3769 22.336 18.4729 22.08 17.6569 21.568C16.8569 21.056 16.2249 20.32 15.7609 19.36C15.2969 18.384 15.0649 17.256 15.0649 15.976C15.0649 14.68 15.2969 13.528 15.7609 12.52C16.2409 11.512 16.9049 10.728 17.7529 10.168C18.6009 9.592 19.5689 9.304 20.6569 9.304ZM30.0968 12.184C30.4968 11.176 31.0488 10.448 31.7528 10C32.4728 9.536 33.2808 9.304 34.1768 9.304C35.2968 9.304 36.1448 9.608 36.7208 10.216C37.0248 10.536 37.2408 10.936 37.3688 11.416C37.4968 11.896 37.5608 12.544 37.5608 13.36V19.768C37.5608 20.424 37.6968 20.88 37.9688 21.136C38.2408 21.376 38.7128 21.496 39.3848 21.496V22C37.9128 21.936 36.9528 21.904 36.5048 21.904C36.0568 21.904 35.1608 21.936 33.8168 22V21.496C34.4088 21.496 34.8168 21.376 35.0408 21.136C35.2808 20.88 35.4008 20.424 35.4008 19.768V12.832C35.4008 11.936 35.2728 11.256 35.0168 10.792C34.7608 10.312 34.2408 10.072 33.4568 10.072C32.8008 10.072 32.2168 10.256 31.7048 10.624C31.2088 10.992 30.8168 11.512 30.5288 12.184C30.2408 12.84 30.0968 13.584 30.0968 14.416V19.768C30.0968 20.424 30.2088 20.88 30.4328 21.136C30.6728 21.376 31.0888 21.496 31.6808 21.496V22C30.3368 21.936 29.4408 21.904 28.9928 21.904C28.5448 21.904 27.5848 21.936 26.1128 22V21.496C26.7848 21.496 27.2568 21.376 27.5288 21.136C27.8008 20.88 27.9368 20.424 27.9368 19.768V6.088C27.9368 5.352 27.8008 4.816 27.5288 4.48C27.2568 4.144 26.7848 3.976 26.1128 3.976V3.472C26.6248 3.52 27.1208 3.544 27.6008 3.544C28.6088 3.544 29.4408 3.432 30.0968 3.208V12.184ZM50.8542 19.12C50.5662 20 50.0222 20.76 49.2222 21.4C48.4382 22.024 47.4862 22.336 46.3662 22.336C45.2302 22.336 44.2462 22.08 43.4142 21.568C42.5822 21.04 41.9422 20.312 41.4942 19.384C41.0622 18.44 40.8462 17.352 40.8462 16.12C40.8462 14.728 41.0702 13.52 41.5182 12.496C41.9662 11.472 42.5982 10.688 43.4142 10.144C44.2302 9.584 45.1822 9.304 46.2702 9.304C47.7102 9.304 48.8142 9.744 49.5822 10.624C50.3662 11.488 50.7582 12.808 50.7582 14.584H43.2462C43.1982 15.032 43.1742 15.544 43.1742 16.12C43.1742 17.176 43.3422 18.096 43.6782 18.88C44.0302 19.664 44.4862 20.272 45.0462 20.704C45.6222 21.12 46.2222 21.328 46.8462 21.328C47.6142 21.328 48.2942 21.144 48.8862 20.776C49.4782 20.408 49.9742 19.792 50.3742 18.928L50.8542 19.12ZM46.1742 9.76C45.4222 9.76 44.7742 10.128 44.2302 10.864C43.6862 11.6 43.3502 12.688 43.2222 14.128H48.4542C48.4862 12.88 48.3022 11.84 47.9022 11.008C47.5182 10.176 46.9422 9.76 46.1742 9.76ZM63.4988 19.384C63.4988 20.12 63.6348 20.656 63.9068 20.992C64.1788 21.328 64.6508 21.496 65.3228 21.496V22C64.8268 21.952 64.3308 21.928 63.8348 21.928C62.8268 21.928 61.9948 22.04 61.3388 22.264V20.128C61.0508 20.848 60.6188 21.4 60.0428 21.784C59.4668 22.152 58.7628 22.336 57.9308 22.336C56.3948 22.336 55.1868 21.784 54.3068 20.68C53.4428 19.576 53.0188 17.96 53.0348 15.832C53.0348 14.44 53.2748 13.256 53.7548 12.28C54.2508 11.288 54.9068 10.544 55.7228 10.048C56.5548 9.552 57.4668 9.304 58.4588 9.304C59.0668 9.304 59.6188 9.424 60.1148 9.664C60.6268 9.888 61.0348 10.24 61.3388 10.72V6.064C61.3388 5.328 61.2028 4.792 60.9308 4.456C60.6588 4.12 60.1868 3.952 59.5148 3.952V3.448C60.0268 3.496 60.5228 3.52 61.0028 3.52C62.0108 3.52 62.8428 3.408 63.4988 3.184V19.384ZM58.6268 21.616C59.2508 21.616 59.8108 21.376 60.3068 20.896C60.8028 20.416 61.1468 19.736 61.3388 18.856V11.704C60.9068 10.472 60.0108 9.856 58.6508 9.856C57.6588 9.856 56.8588 10.368 56.2508 11.392C55.6428 12.4 55.3468 13.88 55.3628 15.832C55.3468 17.752 55.6188 19.2 56.1788 20.176C56.7388 21.136 57.5548 21.616 58.6268 21.616ZM77.4201 19.408C77.4201 20.144 77.5561 20.68 77.8281 21.016C78.1001 21.352 78.5721 21.52 79.2441 21.52V22.024C78.7481 21.976 78.2521 21.952 77.7561 21.952C76.7481 21.952 75.9161 22.064 75.2601 22.288V19.456C74.8761 20.448 74.3321 21.176 73.6281 21.64C72.9241 22.104 72.1561 22.336 71.3241 22.336C70.2361 22.336 69.4041 22.032 68.8281 21.424C68.5401 21.104 68.3321 20.696 68.2041 20.2C68.0921 19.704 68.0361 19.064 68.0361 18.28V12.256C68.0361 11.52 67.9001 10.984 67.6281 10.648C67.3561 10.312 66.8841 10.144 66.2121 10.144V9.64C66.7081 9.688 67.2041 9.712 67.7001 9.712C68.7081 9.712 69.5401 9.6 70.1961 9.376V18.808C70.1961 19.416 70.2281 19.912 70.2921 20.296C70.3721 20.664 70.5401 20.968 70.7961 21.208C71.0681 21.448 71.4761 21.568 72.0201 21.568C72.6281 21.568 73.1801 21.376 73.6761 20.992C74.1721 20.608 74.5561 20.088 74.8281 19.432C75.1161 18.76 75.2601 18.024 75.2601 17.224V12.256C75.2601 11.52 75.1241 10.984 74.8521 10.648C74.5801 10.312 74.1081 10.144 73.4361 10.144V9.64C73.9321 9.688 74.4281 9.712 74.9241 9.712C75.9321 9.712 76.7641 9.6 77.4201 9.376V19.408ZM84.2854 19.768C84.2854 20.424 84.4214 20.88 84.6934 21.136C84.9654 21.376 85.4374 21.496 86.1094 21.496V22C84.6374 21.936 83.6694 21.904 83.2054 21.904C82.7414 21.904 81.7734 21.936 80.3014 22V21.496C80.9734 21.496 81.4454 21.376 81.7174 21.136C81.9894 20.88 82.1254 20.424 82.1254 19.768V6.064C82.1254 5.328 81.9894 4.792 81.7174 4.456C81.4454 4.12 80.9734 3.952 80.3014 3.952V3.448C80.7974 3.496 81.2934 3.52 81.7894 3.52C82.7974 3.52 83.6294 3.408 84.2854 3.184V19.768ZM97.5183 19.12C97.2303 20 96.6863 20.76 95.8863 21.4C95.1023 22.024 94.1503 22.336 93.0303 22.336C91.8943 22.336 90.9103 22.08 90.0783 21.568C89.2463 21.04 88.6063 20.312 88.1583 19.384C87.7263 18.44 87.5103 17.352 87.5103 16.12C87.5103 14.728 87.7343 13.52 88.1823 12.496C88.6303 11.472 89.2623 10.688 90.0783 10.144C90.8943 9.584 91.8463 9.304 92.9343 9.304C94.3743 9.304 95.4783 9.744 96.2463 10.624C97.0303 11.488 97.4223 12.808 97.4223 14.584H89.9103C89.8623 15.032 89.8383 15.544 89.8383 16.12C89.8383 17.176 90.0063 18.096 90.3423 18.88C90.6943 19.664 91.1503 20.272 91.7103 20.704C92.2863 21.12 92.8863 21.328 93.5103 21.328C94.2783 21.328 94.9583 21.144 95.5503 20.776C96.1423 20.408 96.6383 19.792 97.0383 18.928L97.5183 19.12ZM92.8383 9.76C92.0863 9.76 91.4383 10.128 90.8943 10.864C90.3503 11.6 90.0143 12.688 89.8863 14.128H95.1183C95.1503 12.88 94.9663 11.84 94.5663 11.008C94.1823 10.176 93.6063 9.76 92.8383 9.76Z" fill="#D1BABE"/>
<path d="M1 37.424H154.902" stroke="#C2A3A8" stroke-opacity="0.3" stroke-width="1.2" stroke-linecap="square"/>
<rect x="137.8" y="4.224" width="33.6" height="33.6" rx="16.8" fill="black"/>
<path d="M156.876 24.1937C156.608 23.918 156.608 23.4711 156.876 23.1954C157.145 22.9197 157.58 22.9197 157.848 23.1954L160.598 26.0189C160.867 26.2946 160.867 26.7415 160.598 27.0172C160.33 27.2929 159.895 27.2929 159.626 27.0172L156.876 24.1937Z" fill="#F4F6FA"/>
<path fill-rule="evenodd" clip-rule="evenodd" d="M149.8 20.1652C149.8 22.8941 151.954 25.1064 154.612 25.1064C157.27 25.1064 159.425 22.8941 159.425 20.1652C159.425 17.4362 157.27 15.224 154.612 15.224C151.954 15.224 149.8 17.4362 149.8 20.1652ZM158.05 20.1652C158.05 22.1144 156.511 23.6946 154.612 23.6946C152.714 23.6946 151.175 22.1144 151.175 20.1652C151.175 18.2159 152.714 16.6358 154.612 16.6358C156.511 16.6358 158.05 18.2159 158.05 20.1652Z" fill="#F4F6FA"/>
</svg>
