<svg width="17" height="19" viewBox="0 0 17 19" fill="none" xmlns="http://www.w3.org/2000/svg">
<path fill-rule="evenodd" clip-rule="evenodd" d="M14.6667 1.83333H13.75V0H11.9167V1.83333H4.58333V0H2.75V1.83333H1.83333C0.815833 1.83333 0.00916667 2.65833 0.00916667 3.66667L0 16.5C0 17.5083 0.815833 18.3333 1.83333 18.3333H14.6667C15.675 18.3333 16.5 17.5083 16.5 16.5V3.66667C16.5 2.65833 15.675 1.83333 14.6667 1.83333ZM3.66667 8.25V10.0833H5.5V8.25H3.66667ZM9.16667 8.25H7.33333V10.0833H9.16667V8.25ZM11 8.25H12.8333V10.0833H11V8.25ZM1.83333 16.5H14.6667V6.41667H1.83333V16.5Z" fill="#35354D"/>
</svg>
