<svg width="10" height="30" viewBox="0 0 10 30" fill="none" xmlns="http://www.w3.org/2000/svg">
<path d="M8.84 29.9515C8.736 29.9515 8.638 29.9335 8.546 29.8975C8.454 29.8575 8.374 29.8055 8.306 29.7415C8.238 29.6735 8.184 29.5935 8.144 29.5015C8.104 29.4095 8.084 29.3115 8.084 29.2075C8.084 29.1035 8.104 29.0055 8.144 28.9135C8.184 28.8215 8.238 28.7415 8.306 28.6735C8.374 28.6055 8.454 28.5535 8.546 28.5175C8.638 28.4775 8.736 28.4575 8.84 28.4575C8.948 28.4575 9.048 28.4775 9.14 28.5175C9.228 28.5535 9.306 28.6055 9.374 28.6735C9.442 28.7415 9.494 28.8215 9.53 28.9135C9.57 29.0055 9.59 29.1035 9.59 29.2075C9.59 29.3115 9.57 29.4095 9.53 29.5015C9.494 29.5935 9.442 29.6735 9.374 29.7415C9.306 29.8055 9.228 29.8575 9.14 29.8975C9.048 29.9335 8.948 29.9515 8.84 29.9515ZM3.422 28.6254V27.7494C3.422 27.6654 3.444 27.5954 3.488 27.5394C3.532 27.4834 3.584 27.4434 3.644 27.4194L7.556 25.8774C7.7 25.8214 7.844 25.7774 7.988 25.7454C8.132 25.7134 8.274 25.6834 8.414 25.6554C8.274 25.6234 8.132 25.5894 7.988 25.5534C7.844 25.5174 7.7 25.4714 7.556 25.4154L3.644 23.8554C3.58 23.8314 3.528 23.7934 3.488 23.7414C3.444 23.6854 3.422 23.6174 3.422 23.5374V22.7034L9.5 25.1814V26.1474L3.422 28.6254ZM3.422 20.5288H9.5V21.5968H3.422V20.5288ZM1.514 20.2888C1.618 20.2888 1.716 20.3108 1.808 20.3548C1.896 20.3948 1.976 20.4508 2.048 20.5228C2.116 20.5908 2.17 20.6708 2.21 20.7628C2.25 20.8548 2.27 20.9528 2.27 21.0568C2.27 21.1608 2.25 21.2588 2.21 21.3508C2.17 21.4388 2.116 21.5188 2.048 21.5908C1.976 21.6588 1.896 21.7128 1.808 21.7528C1.716 21.7928 1.618 21.8128 1.514 21.8128C1.41 21.8128 1.312 21.7928 1.22 21.7528C1.124 21.7128 1.042 21.6588 0.973999 21.5908C0.902 21.5188 0.846 21.4388 0.805999 21.3508C0.765999 21.2588 0.745999 21.1608 0.745999 21.0568C0.745999 20.9528 0.765999 20.8548 0.805999 20.7628C0.846 20.6708 0.902 20.5908 0.973999 20.5228C1.042 20.4508 1.124 20.3948 1.22 20.3548C1.312 20.3108 1.41 20.2888 1.514 20.2888ZM9.5 14.3685C9.5 14.5205 9.426 14.6165 9.278 14.6565L8.54 14.7525C8.856 15.0125 9.11 15.3105 9.302 15.6465C9.49 15.9785 9.584 16.3605 9.584 16.7925C9.584 17.1405 9.518 17.4565 9.386 17.7405C9.25 18.0245 9.052 18.2665 8.792 18.4665C8.532 18.6665 8.208 18.8205 7.82 18.9285C7.432 19.0365 6.986 19.0905 6.482 19.0905C6.034 19.0905 5.618 19.0305 5.234 18.9105C4.846 18.7905 4.51 18.6185 4.226 18.3945C3.942 18.1665 3.72 17.8905 3.56 17.5665C3.396 17.2425 3.314 16.8745 3.314 16.4625C3.314 16.0905 3.378 15.7725 3.506 15.5085C3.63 15.2445 3.806 15.0085 4.034 14.8005H0.662V13.7325H9.5V14.3685ZM8.72 16.4385C8.72 16.0905 8.64 15.7865 8.48 15.5265C8.32 15.2625 8.094 15.0205 7.802 14.8005H4.862C4.598 14.9965 4.414 15.2125 4.31 15.4485C4.202 15.6805 4.148 15.9385 4.148 16.2225C4.148 16.7905 4.35 17.2265 4.754 17.5305C5.158 17.8345 5.734 17.9865 6.482 17.9865C6.878 17.9865 7.218 17.9525 7.502 17.8845C7.782 17.8165 8.014 17.7165 8.198 17.5845C8.378 17.4525 8.51 17.2905 8.594 17.0985C8.678 16.9065 8.72 16.6865 8.72 16.4385ZM3.326 9.53734C3.326 9.17334 3.388 8.83734 3.512 8.52934C3.632 8.22134 3.808 7.95534 4.04 7.73134C4.268 7.50734 4.552 7.33334 4.892 7.20934C5.228 7.08134 5.612 7.01734 6.044 7.01734C6.212 7.01734 6.324 7.03534 6.38 7.07134C6.436 7.10734 6.464 7.17534 6.464 7.27534V11.3193C6.848 11.3113 7.182 11.2593 7.466 11.1633C7.75 11.0673 7.988 10.9353 8.18 10.7673C8.368 10.5993 8.51 10.3993 8.606 10.1673C8.698 9.93534 8.744 9.67534 8.744 9.38734C8.744 9.11934 8.714 8.88934 8.654 8.69734C8.59 8.50134 8.522 8.33334 8.45 8.19334C8.378 8.05334 8.312 7.93734 8.252 7.84534C8.188 7.74934 8.156 7.66734 8.156 7.59934C8.156 7.51134 8.19 7.44334 8.258 7.39534L8.648 7.09534C8.808 7.22734 8.948 7.38534 9.068 7.56934C9.184 7.75334 9.28 7.95134 9.356 8.16334C9.432 8.37134 9.488 8.58734 9.524 8.81134C9.564 9.03534 9.584 9.25734 9.584 9.47734C9.584 9.89734 9.514 10.2853 9.374 10.6413C9.23 10.9933 9.022 11.2993 8.75 11.5593C8.474 11.8153 8.134 12.0153 7.73 12.1593C7.326 12.3033 6.862 12.3753 6.338 12.3753C5.914 12.3753 5.518 12.3113 5.15 12.1833C4.782 12.0513 4.464 11.8633 4.196 11.6193C3.924 11.3753 3.712 11.0773 3.56 10.7253C3.404 10.3733 3.326 9.97734 3.326 9.53734ZM4.112 9.51334C4.112 10.0293 4.262 10.4353 4.562 10.7313C4.858 11.0273 5.27 11.2113 5.798 11.2833V7.97734C5.55 7.97734 5.324 8.01134 5.12 8.07934C4.912 8.14734 4.734 8.24734 4.586 8.37934C4.434 8.51134 4.318 8.67334 4.238 8.86534C4.154 9.05334 4.112 9.26934 4.112 9.51334ZM3.326 3.19037C3.326 2.74637 3.4 2.34637 3.548 1.99037C3.696 1.63037 3.906 1.32637 4.178 1.07837C4.45 0.826367 4.78 0.634367 5.168 0.502367C5.552 0.366367 5.982 0.298367 6.458 0.298367C6.938 0.298367 7.37 0.366367 7.754 0.502367C8.138 0.634367 8.466 0.826367 8.738 1.07837C9.01 1.32637 9.22 1.63037 9.368 1.99037C9.512 2.34637 9.584 2.74637 9.584 3.19037C9.584 3.63437 9.512 4.03637 9.368 4.39637C9.22 4.75237 9.01 5.05637 8.738 5.30837C8.466 5.56037 8.138 5.75437 7.754 5.89037C7.37 6.02637 6.938 6.09437 6.458 6.09437C5.982 6.09437 5.552 6.02637 5.168 5.89037C4.78 5.75437 4.45 5.56037 4.178 5.30837C3.906 5.05637 3.696 4.75237 3.548 4.39637C3.4 4.03637 3.326 3.63437 3.326 3.19037ZM8.75 3.19037C8.75 2.59037 8.55 2.14237 8.15 1.84637C7.746 1.55037 7.184 1.40237 6.464 1.40237C5.74 1.40237 5.176 1.55037 4.772 1.84637C4.368 2.14237 4.166 2.59037 4.166 3.19037C4.166 3.49437 4.218 3.75837 4.322 3.98237C4.426 4.20637 4.576 4.39437 4.772 4.54637C4.968 4.69437 5.21 4.80637 5.498 4.88237C5.782 4.95437 6.104 4.99037 6.464 4.99037C6.824 4.99037 7.146 4.95437 7.43 4.88237C7.714 4.80637 7.954 4.69437 8.15 4.54637C8.342 4.39437 8.49 4.20637 8.594 3.98237C8.698 3.75837 8.75 3.49437 8.75 3.19037Z" fill="#C6C6D5"/>
</svg>
